<?xml version="1.0" encoding="utf-8"?>
<!-- Generator: Adobe Illustrator 27.9.0, SVG Export Plug-In . SVG Version: 6.00 Build 0)  -->
<svg version="1.1" id="Layer_1" xmlns="http://www.w3.org/2000/svg" xmlns:xlink="http://www.w3.org/1999/xlink" x="0px" y="0px"
	 viewBox="0 0 292.52 245.15" style="enable-background:new 0 0 292.52 245.15;" xml:space="preserve">
<style type="text/css">
	.st0{fill:#FFFFFF;}
</style>
<g>
	<path class="st0" d="M290.9,105.27c-12.71-0.93-26.54,3.23-35.7,12.36c-2.86,2.85-5.48,6.13-7.78,9.67
		c0.82-2.28,1.41-4.65,1.77-7.12c0.92-6.37,1.06-12.77,3.3-18.89c1.17-3.19,2.91-6.61,5.99-8.33c3.01-1.69,7.11-1.33,8.77,2.03
		c1.44,2.92-0.22,6.8-3.47,7.54c-1.57,0.36-3.53-0.15-4.04-1.87c-0.39-1.34,0.98-3.34,2.44-2.15c1.6,1.3,3.9-0.97,2.29-2.29
		c-2.32-1.89-5.93-1.51-7.47,1.25c-1.53,2.74-0.03,6.27,2.61,7.66c6.02,3.18,12.56-3.52,11.26-9.55
		c-1.58-7.31-10.28-8.56-15.55-4.36c-6.07,4.83-7.63,13.85-8.51,21.09c-0.47,3.91-0.65,7.83-1.67,11.65
		c0.01-0.47,0.02-0.93,0.02-1.4c0-5.12-0.41-10.37-1.19-15.67c1.67-7.27,2.47-14.75,2.01-22.21c-0.74-12.13-4.76-23.56-12.39-33.07
		c-7.24-9.02-17.14-15.71-28.14-19.24c-0.01,0-0.01,0-0.02-0.01c-0.04-0.01-0.07-0.03-0.11-0.04c-0.88-0.28-1.53,0.17-1.82,0.82
		c-0.34,0.56-0.37,1.29,0.25,1.88c5.3,5.1,4.13,13.82,4.18,20.52c0.04,6.14,0.86,11.98,3.81,17.43c2.38,4.39,5.72,8.2,9.19,11.75
		c7.1,7.25,15.73,13.95,19.61,23.6c0.67,4.81,1.01,9.58,1.01,14.23c0,2.38-0.08,4.73-0.22,7.08c-0.86-5.52-2.44-10.93-4.88-16.08
		c-4.32-9.14-11.05-16.97-19-23.16c-3.98-3.1-8.23-5.82-12.71-8.14c-4.74-2.46-9.79-4.22-14.55-6.64
		c-4.63-2.36-8.96-5.5-10.95-10.48c-1.87-4.67-1.01-10.19,3.8-12.64c4.77-2.43,10.77,0.17,12.24,5.36c0.66,2.31,0.25,5.89-2.55,6.55
		c-0.93,0.22-2.37,0.08-2.86-0.89c-0.48-0.94,0.28-2.68,1.49-2.46c2.04,0.39,2.9-2.73,0.86-3.12c-5.76-1.09-7.93,7.43-2.39,9.41
		c6.24,2.23,9.95-4.76,8.65-10.04c-1.32-5.36-6.68-9.4-12.21-8.98c-5.49,0.41-10.18,4.48-11.07,9.96
		c-0.91,5.63,1.92,11.47,6.02,15.22c5.09,4.66,11.77,6.8,17.93,9.62c12.03,5.5,23.11,13.76,30.46,24.89
		c5.75,8.7,8.61,18.5,9.16,28.61c-2.35-11.15-7.41-21.62-15.33-29.92c-9.08-9.53-21.14-16.09-34.06-18.55
		c-0.31-0.06-0.59-0.03-0.84,0.05c-0.01,0-0.02,0.01-0.04,0.01c-0.05,0.02-0.1,0.03-0.15,0.05c-0.65,0.25-1.14,0.86-1,1.69
		c0.01,0.22,0.06,0.44,0.16,0.63c3.25,11.46,9.18,22.35,18.71,29.76c7.75,6.02,17.33,9.19,27.14,8.87
		c3.03,8.62,4.64,18.29,3.22,27.34c-3.1,10.38-7.58,20.17-13.23,29.16c0.15-2.26-0.1-4.6-0.82-6.99
		c-2.05-6.83-6.59-12.22-11.14-17.53c-4.59-5.35-8.83-12.98-3.73-19.56c3.98-5.12,14.06-4.64,14.54,2.95
		c0.18,2.92-1.41,6.13-4.55,6.55c-1.53,0.2-3.64-0.32-4.12-2.01c-0.39-1.37,0.54-3.16,2.03-3.2c2.08-0.06,2.08-3.29,0-3.23
		c-3.88,0.11-6.42,4.44-4.9,7.99c1.6,3.73,6.58,4.59,9.94,2.89c6.8-3.44,6.08-13.96-0.34-17.34c-7.56-3.98-16.24,1.4-17.82,9.32
		c-2.04,10.23,6.35,16.69,11.73,24.07c2.96,4.05,5.65,8.86,6.05,13.97c0.33,4.24-1.26,8.24-3.58,11.72
		c-1.51,1.96-3.09,3.86-4.72,5.72c-0.64-1.33-1.28-2.66-1.91-4c3.91-13.41-3.12-27.3-16.06-32.32c-0.84-0.33-1.75,0.36-1.99,1.13
		c-2.14,6.79-1.94,14.75,1.55,21.08c2.93,5.33,8.09,10.03,13.87,12.1c0.72,1.53,1.46,3.06,2.19,4.59
		c-21.74,23.34-52.71,37.96-87.04,37.96c-14.13,0-27.69-2.48-40.28-7.02c-1.85-10.81,0.27-20.25,6.32-28.08
		c16.14-20.88,54.91-24.68,62.52-25.22c8.65-0.62,14.25-3.27,16.64-7.86c2.51-4.82,0.78-10.9-1.66-14.98
		c-4.82-8.04,0.19-11.56,1.84-12.71c2.72-1.89,3.89-3.85,3.47-5.81c-0.47-2.2-2.77-3.43-4.77-4.1c2.16-0.72,4.61-1.98,5.95-4.41
		c2.13-3.88-2.65-8.93-5.22-11.64l-0.36-0.39c-0.35-0.37-0.46-0.76-0.35-1.2c0.21-0.83,1.29-2,3.66-2.77
		c4.61-1.52,6.49-3.66,6.3-7.15c-0.14-2.57-3-5.16-5.38-6.87c-1.94-1.42-6.47-4.74-14.9-11.03c-7.55-5.64-7.23-18.31-7.23-18.43
		l0-0.1l-0.01-0.1c-1.84-24.5-15.88-41.86-27.34-52.12c-7.74-6.93-15.25-11.57-19.9-14.13c6.72-1.18,13.64-1.81,20.7-1.81
		c26.94,0,52.35,8.78,73.48,25.4c0.78,0.61,1.91,0.48,2.53-0.3c0.61-0.78,0.48-1.91-0.3-2.53C176.51,9.05,150.33,0,122.57,0
		c-8.85,0-17.55,0.94-26.01,2.76l-3.28,0.75C71.75,8.76,51.98,19.82,35.9,35.9C12.75,59.05,0,89.83,0,122.57
		c0,32.74,12.75,63.52,35.9,86.67c23.15,23.15,53.93,35.9,86.67,35.9s63.52-12.75,86.67-35.9c4.2-4.2,8.05-8.65,11.55-13.31
		c0.23,0.07,0.48,0.09,0.75,0.05c2.31-0.36,4.62-0.75,6.93-1.15c0.12,0.04,0.24,0.07,0.37,0.08c0.11,0.12,0.23,0.24,0.4,0.34
		c11.79,7.06,26.69,3.99,34.92-6.82c0.39-0.23,0.59-0.61,0.62-1.03c0.13-0.65-0.23-1.39-0.78-1.73c-5.78-3.63-13.15-5.46-19.92-4.02
		c-6.07,1.29-11.48,5.6-15.79,9.94c-1.66,0.29-3.31,0.56-4.97,0.83c4.07-5.85,7.6-12,10.57-18.41c5.73-7.44,18.96-0.77,26.65-2.74
		c8.6-2.21,13.88-11.23,11.68-19.82c-1.73-6.76-10.09-13.15-16.75-8.34c-5.73,4.14-5.31,14.74,1.76,17.31
		c3.12,1.13,7-0.17,8.11-3.49c1.07-3.21-0.42-6.33-3.47-7.6c-1.92-0.8-2.75,2.33-0.86,3.12c1.49,0.62,1.81,2.69,0.99,3.96
		c-1.11,1.72-3.48,1.37-4.88,0.27c-2.62-2.05-3.05-5.92-1.59-8.79c3.23-6.31,11.12-2,13.1,2.96c2.61,6.52-0.84,14.08-7.23,16.72
		c-6.49,2.68-13.27-1.05-19.93-0.35c-1.77,0.19-3.57,0.62-5.23,1.33c3.4-8.41,5.85-17.2,7.31-26.25c1.06-2.96,2.35-5.87,3.87-8.67
		c8.93,2.07,19.99-0.32,27.53-5.27c3.87-2.54,6.65-5.91,8.87-9.93c2.09-3.78,3.91-8.01,7.89-10.15
		C293.22,107.47,292.41,105.38,290.9,105.27z M208.07,117.71c-7.92-6.23-13.14-15.03-16.34-24.46
		c12.21,11.16,24.66,22.04,37.35,32.64C221.46,125.3,214.15,122.49,208.07,117.71z M196.73,93.43c4.01,1.35,7.88,3.12,11.54,5.3
		c9.75,5.8,17.81,14.27,22.67,24.51C219.33,113.54,207.93,103.6,196.73,93.43z M196.34,185.27c-2.41-4.39-2.94-9.66-2.15-14.61
		c3.81,7.89,7.42,15.88,11.12,23.82C201.56,192.32,198.34,188.92,196.34,185.27z M207.74,192.08c-3.41-7.35-6.76-14.73-10.27-22.03
		C204.74,174.84,208.69,183.39,207.74,192.08z M40.77,36.27c4.66,25.35-12.92,46.75-29.95,67.47c-2.24,2.72-4.53,5.51-6.74,8.28
		C6.7,82.3,20.29,55.69,40.77,36.27z M3.6,122.57c0-1.43,0.03-2.86,0.09-4.28c0.06-0.06,0.12-0.11,0.17-0.18
		c3.08-3.99,6.32-7.93,9.74-12.09C22.5,95.2,31.7,84,37.84,72c6.9-13.48,8.87-26.1,6.02-38.55c6.39-5.65,13.39-10.62,20.88-14.81
		c0.03,0.05,0.05,0.11,0.08,0.16c23.05,36.38-0.14,64.66-22.56,92.01c-9.85,12.01-19.15,23.36-24.35,35.1
		c-3.66,8.3-5.12,16.41-4.37,24.28C7.16,155.59,3.6,139.49,3.6,122.57z M22.68,187.13c-0.01-0.28-0.08-0.56-0.22-0.83
		c-6.86-12.18-7.28-25.28-1.25-38.94c5-11.3,14.15-22.46,23.84-34.27c11.31-13.79,23-28.05,28.94-43.75
		c6.82-18.01,4.83-35.15-6.09-52.41c8.69-4.52,18-7.99,27.77-10.26c30.76,41.34,5.76,77.72-18.43,112.9
		c-10.65,15.49-20.72,30.13-25.77,44.79c-6.05,17.61-5.24,35.34,2.29,49.93c1.77,3.43,3.87,6.6,6.21,9.43
		C45.02,214.42,32.26,201.9,22.68,187.13z M56.97,212.63c-7.07-13.71-7.81-30.44-2.08-47.1c4.89-14.2,14.82-28.64,25.33-43.92
		c5.51-8.01,11.1-16.14,16.09-24.45c-0.44,2.95-0.65,5.95-0.61,8.99c0.1,7.2,1.44,14.29,2.53,21.38c0.98,6.38,1.82,12.98,1.17,19.44
		c-0.49,4.91-2.08,9.72-4.06,14.22c-4.25,9.64-10.29,18.36-15.74,27.34c-4.72,7.77-9.67,16.22-10.68,25.43
		c-0.7,6.38,1.24,12.07,4.82,16.84C67.12,227.08,61.1,220.64,56.97,212.63z M72.7,222.01c-1.19-4.25-0.73-8.7,0.47-12.9
		c2.61-9.09,8.11-17.24,13.07-25.18c5.29-8.46,10.74-17.02,14.02-26.5c3.74-10.78,2.51-21.79,0.76-32.85
		c-1.01-6.35-2.08-12.71-2.1-19.16c-0.02-6.78,1.26-13.39,3.73-19.66c2.37-4.66,4.46-9.38,6.16-14.17c0.07-0.08,0.14-0.17,0.2-0.27
		c0.27-0.45,6.36-10.15,23.22-4.11c0.94,0.34,1.97-0.15,2.3-1.09c0.34-0.94-0.15-1.97-1.09-2.3c-10.23-3.67-17.12-2.01-21.1,0.03
		c-0.48,0.25-0.93,0.51-1.36,0.78c5.21-19.51,2.34-37.55-8.79-54.89c4.51,2.63,10.85,6.8,17.26,12.55
		c10.91,9.79,24.29,26.32,26.06,49.54c-0.03,1.43-0.09,14.79,8.67,21.34c8.44,6.3,12.99,9.64,14.94,11.06
		c2.79,2.01,3.87,3.61,3.9,4.15c0.05,1,0.12,2.23-3.83,3.53c-3.24,1.05-5.45,2.99-6.04,5.31c-0.42,1.64,0.03,3.3,1.22,4.56
		l0.37,0.39c4.58,4.83,5.07,6.71,4.68,7.43c-1.24,2.26-4.64,2.99-6.47,3.39c-2.7,0.56-3.09,1.97-3.08,2.76
		c0.02,1.49,1.31,2.48,3.84,2.95c2.57,0.48,4.08,1.49,4.17,1.89c0.03,0.12-0.25,0.88-2.01,2.11c-6.07,4.26-7.09,10.48-2.87,17.52
		c0.67,1.12,3.91,6.95,1.56,11.47c-1.77,3.41-6.38,5.4-13.7,5.93c-7.88,0.57-48.04,4.52-65.11,26.61
		c-5.93,7.68-8.46,16.71-7.54,26.91C75.72,228.55,73.69,225.55,72.7,222.01z M244.29,184.93c4.52-1.16,9.44-0.44,13.81,1.35
		c-7.99,1.34-15.95,2.85-23.93,4.29C237.18,188.04,240.57,185.89,244.29,184.93z M259.09,189.37c-6.72,6.48-16.74,8.24-25.36,4.54
		C242.18,192.4,250.62,190.79,259.09,189.37z M234.29,93.48c-7.17-7.7-16.43-14.34-20.8-24.21c-3-6.78-2.13-14.2-2.43-21.4
		c-0.1-2.41-0.26-4.77-0.73-7.01c13.78,16.35,23.93,37.3,28.51,58.08C237.44,97.04,235.91,95.23,234.29,93.48z M242.28,97.87
		C237.62,77,227.51,55.98,213.8,39.41c9.4,5.02,17.36,12.68,22.54,22.06C242.43,72.51,243.82,85.46,242.28,97.87z M257.05,120.37
		c6.41-6.6,15.34-10.44,24.48-11.61c-10.2,5.75-20.32,11.69-30,18.27C253.23,124.64,255.08,122.4,257.05,120.37z M275.28,124.15
		c-3.72,3.07-8.32,4.81-12.98,5.86c-3.51,0.78-7.2,1.27-10.82,0.98c10.59-7.32,21.74-13.84,32.97-20.15
		C281.4,115.23,279.49,120.67,275.28,124.15z"/>
	<path class="st0" d="M119.22,90.88c4.02,2.04,7.46,2.77,10.31,2.77c7.05,0,10.55-4.43,10.6-4.5c0.6-0.79,0.45-1.92-0.34-2.52
		c-0.79-0.6-1.91-0.45-2.52,0.33c-0.23,0.29-5.27,6.38-16.43,0.72c-0.89-0.45-1.97-0.1-2.42,0.79
		C117.98,89.34,118.33,90.43,119.22,90.88z"/>
</g>
</svg>
