<?xml version="1.0" encoding="utf-8"?>
<!-- Generator: Adobe Illustrator 27.9.0, SVG Export Plug-In . SVG Version: 6.00 Build 0)  -->
<svg version="1.1" id="Layer_1" xmlns="http://www.w3.org/2000/svg" xmlns:xlink="http://www.w3.org/1999/xlink" x="0px" y="0px"
	 viewBox="0 0 749.97 375.95" style="enable-background:new 0 0 749.97 375.95;" xml:space="preserve">
<g>
	<g>
		<g>
			<path d="M264.42,35.9c16.08-16.08,35.84-27.14,57.39-32.39l3.28-0.75C333.54,0.94,342.25,0,351.1,0
				c27.76,0,53.94,9.05,75.71,26.17c0.78,0.61,0.92,1.75,0.3,2.53c-0.62,0.78-1.75,0.92-2.53,0.3C403.45,12.38,378.04,3.6,351.1,3.6
				c-7.06,0-13.97,0.62-20.7,1.81c4.65,2.56,12.16,7.2,19.9,14.13c11.46,10.25,25.5,27.62,27.34,52.12l0.01,0.1l0,0.1
				c0,0.13-0.32,12.79,7.23,18.43c8.43,6.29,12.96,9.62,14.9,11.03c2.38,1.71,5.24,4.3,5.38,6.87c0.19,3.5-1.69,5.64-6.3,7.15
				c-2.38,0.77-3.45,1.94-3.66,2.77c-0.11,0.44,0,0.83,0.35,1.2l0.36,0.39c2.57,2.71,7.35,7.75,5.22,11.64
				c-1.34,2.43-3.79,3.7-5.95,4.41c1.99,0.67,4.3,1.9,4.77,4.1c0.42,1.96-0.75,3.92-3.47,5.81c-1.65,1.16-6.66,4.67-1.84,12.71
				c2.45,4.08,4.17,10.16,1.66,14.98c-2.39,4.59-7.98,7.24-16.64,7.86c-7.61,0.55-46.38,4.34-62.52,25.22
				c-6.05,7.83-8.17,17.28-6.32,28.08c12.58,4.54,26.15,7.02,40.28,7.02c34.33,0,65.31-14.62,87.04-37.96
				c-0.74-1.53-1.47-3.06-2.19-4.59c-5.78-2.07-10.95-6.77-13.87-12.1c-3.48-6.34-3.69-14.29-1.55-21.08
				c0.24-0.77,1.15-1.46,1.99-1.13c12.94,5.03,19.97,18.92,16.06,32.32c0.63,1.33,1.27,2.67,1.91,4c1.63-1.86,3.2-3.76,4.72-5.72
				c2.32-3.48,3.91-7.48,3.58-11.72c-0.4-5.1-3.09-9.92-6.05-13.97c-5.38-7.38-13.77-13.84-11.73-24.07
				c1.58-7.92,10.26-13.3,17.82-9.32c6.42,3.38,7.14,13.9,0.34,17.34c-3.36,1.7-8.34,0.84-9.94-2.89c-1.53-3.55,1.01-7.87,4.9-7.99
				c2.08-0.06,2.08,3.17,0,3.23c-1.49,0.04-2.42,1.83-2.03,3.2c0.48,1.69,2.59,2.21,4.12,2.01c3.14-0.42,4.73-3.63,4.55-6.55
				c-0.48-7.59-10.56-8.07-14.54-2.95c-5.11,6.57-0.86,14.2,3.73,19.56c4.55,5.31,9.09,10.7,11.14,17.53
				c0.72,2.39,0.96,4.73,0.82,6.99c5.65-8.99,10.13-18.78,13.23-29.16c1.42-9.04-0.19-18.71-3.22-27.34
				c-9.81,0.32-19.39-2.84-27.14-8.87c-9.53-7.41-15.46-18.29-18.71-29.76c-0.1-0.19-0.15-0.41-0.16-0.63
				c-0.14-0.83,0.35-1.43,1-1.69c0.05-0.02,0.1-0.04,0.15-0.05c0.01,0,0.02-0.01,0.04-0.01c0.25-0.08,0.53-0.11,0.84-0.05
				c12.93,2.47,24.98,9.02,34.06,18.55c7.91,8.31,12.97,18.77,15.33,29.92c-0.55-10.11-3.41-19.91-9.16-28.61
				c-7.35-11.13-18.43-19.39-30.46-24.89c-6.16-2.82-12.83-4.96-17.93-9.62c-4.1-3.75-6.93-9.59-6.02-15.22
				c0.89-5.48,5.57-9.55,11.07-9.96c5.54-0.42,10.89,3.62,12.21,8.98c1.3,5.27-2.41,12.27-8.65,10.04
				c-5.54-1.98-3.37-10.5,2.39-9.41c2.04,0.39,1.18,3.5-0.86,3.12c-1.21-0.23-1.97,1.51-1.49,2.46c0.49,0.97,1.93,1.11,2.86,0.89
				c2.8-0.66,3.21-4.24,2.55-6.55c-1.47-5.18-7.47-7.79-12.24-5.36c-4.81,2.45-5.67,7.97-3.8,12.64c1.99,4.98,6.32,8.13,10.95,10.48
				c4.75,2.42,9.81,4.18,14.55,6.64c4.47,2.32,8.73,5.04,12.71,8.14c7.95,6.19,14.67,14.02,19,23.16
				c2.43,5.15,4.02,10.55,4.88,16.08c0.14-2.34,0.22-4.7,0.22-7.08c0-4.65-0.35-9.42-1.01-14.23c-3.88-9.66-12.52-16.36-19.61-23.6
				c-3.47-3.55-6.81-7.36-9.19-11.75c-2.96-5.45-3.77-11.29-3.81-17.43c-0.05-6.7,1.13-15.42-4.18-20.52
				c-0.61-0.59-0.59-1.32-0.25-1.88c0.29-0.65,0.94-1.1,1.82-0.82c0.04,0.01,0.07,0.03,0.11,0.04c0.01,0,0.01,0,0.02,0.01
				c10.99,3.53,20.89,10.22,28.14,19.24c7.63,9.5,11.65,20.94,12.39,33.07c0.45,7.46-0.34,14.94-2.01,22.21
				c0.78,5.3,1.19,10.55,1.19,15.67c0,0.47-0.01,0.93-0.02,1.4c1.03-3.82,1.2-7.74,1.67-11.65c0.88-7.24,2.44-16.26,8.51-21.09
				c5.27-4.2,13.97-2.95,15.55,4.36c1.3,6.03-5.24,12.73-11.26,9.55c-2.64-1.39-4.13-4.92-2.61-7.66c1.54-2.77,5.15-3.14,7.47-1.25
				c1.62,1.31-0.68,3.59-2.29,2.29c-1.47-1.19-2.83,0.81-2.44,2.15c0.5,1.72,2.47,2.23,4.04,1.87c3.26-0.74,4.92-4.62,3.47-7.54
				c-1.66-3.36-5.76-3.71-8.77-2.03c-3.08,1.73-4.82,5.15-5.99,8.33c-2.25,6.12-2.39,12.52-3.3,18.89
				c-0.35,2.46-0.95,4.84-1.77,7.12c2.31-3.54,4.92-6.82,7.78-9.67c9.15-9.13,22.98-13.3,35.7-12.36c1.5,0.11,2.32,2.2,0.82,3.01
				c-3.98,2.15-5.8,6.37-7.89,10.15c-2.22,4.02-5.01,7.39-8.87,9.93c-7.53,4.95-18.6,7.34-27.53,5.27c-1.51,2.8-2.81,5.72-3.87,8.67
				c-1.46,9.05-3.91,17.84-7.31,26.25c1.66-0.71,3.46-1.14,5.23-1.33c6.66-0.7,13.44,3.03,19.93,0.35
				c6.39-2.64,9.84-10.2,7.23-16.72c-1.98-4.96-9.87-9.27-13.1-2.96c-1.47,2.86-1.03,6.73,1.59,8.79c1.4,1.1,3.77,1.46,4.88-0.27
				c0.82-1.27,0.5-3.33-0.99-3.96c-1.89-0.79-1.06-3.92,0.86-3.12c3.04,1.27,4.53,4.4,3.47,7.6c-1.11,3.32-4.99,4.62-8.11,3.49
				c-7.08-2.57-7.49-13.18-1.76-17.31c6.65-4.81,15.01,1.58,16.75,8.34c2.2,8.59-3.08,17.62-11.68,19.82
				c-7.69,1.97-20.92-4.7-26.65,2.74c-2.97,6.41-6.5,12.57-10.57,18.41c1.66-0.27,3.31-0.55,4.97-0.83
				c4.31-4.35,9.72-8.65,15.79-9.94c6.77-1.44,14.14,0.39,19.92,4.02c0.55,0.34,0.91,1.08,0.78,1.73c-0.03,0.42-0.22,0.8-0.62,1.03
				c-8.23,10.81-23.14,13.87-34.92,6.82c-0.16-0.1-0.29-0.21-0.4-0.34c-0.13-0.01-0.25-0.04-0.37-0.08
				c-2.31,0.4-4.62,0.78-6.93,1.15c-0.27,0.04-0.52,0.02-0.75-0.05c-3.5,4.67-7.35,9.12-11.55,13.31
				c-23.15,23.15-53.93,35.9-86.67,35.9s-63.52-12.75-86.67-35.9c-23.15-23.15-35.9-53.93-35.9-86.67S241.27,59.05,264.42,35.9z
				 M424.86,185.27c2.01,3.65,5.22,7.05,8.96,9.21c-3.7-7.94-7.31-15.93-11.12-23.82C421.92,175.61,422.45,180.88,424.86,185.27z
				 M425.99,170.05c3.5,7.3,6.85,14.68,10.27,22.03C437.21,183.39,433.27,174.84,425.99,170.05z M436.59,117.71
				c6.08,4.78,13.39,7.59,21.01,8.18c-12.69-10.6-25.14-21.48-37.35-32.64C423.45,102.68,428.67,111.49,436.59,117.71z
				 M436.79,98.73c-3.66-2.18-7.53-3.94-11.54-5.3c11.2,10.17,22.6,20.11,34.2,29.81C454.61,112.99,446.54,104.53,436.79,98.73z
				 M485.57,120.37c-1.97,2.03-3.82,4.28-5.52,6.67c9.68-6.58,19.8-12.52,30-18.27C500.91,109.92,491.99,113.77,485.57,120.37z
				 M490.82,130c4.66-1.04,9.26-2.79,12.98-5.86c4.22-3.48,6.13-8.91,9.17-13.31c-11.23,6.31-22.38,12.83-32.97,20.15
				C483.61,131.27,487.31,130.79,490.82,130z M439.58,47.88c0.3,7.2-0.58,14.62,2.43,21.4c4.37,9.86,13.64,16.51,20.8,24.21
				c1.62,1.74,3.16,3.55,4.55,5.46c-4.58-20.77-14.73-41.73-28.51-58.08C439.33,43.1,439.48,45.47,439.58,47.88z M464.86,61.48
				c-5.18-9.38-13.14-17.04-22.54-22.06c13.7,16.57,23.81,37.58,28.48,58.46C472.34,85.46,470.95,72.51,464.86,61.48z
				 M472.81,184.93c-3.72,0.96-7.11,3.11-10.12,5.63c7.97-1.44,15.94-2.95,23.93-4.29C482.25,184.49,477.33,183.76,472.81,184.93z
				 M487.61,189.37c-8.47,1.42-16.91,3.03-25.36,4.54C470.87,197.61,480.89,195.85,487.61,189.37z M269.29,36.27
				c-20.48,19.42-34.07,46.03-36.69,75.75c2.22-2.77,4.5-5.56,6.74-8.28C256.37,83.02,273.95,61.61,269.29,36.27z M314.29,204.24
				c17.07-22.09,57.23-26.05,65.11-26.61c7.32-0.53,11.93-2.52,13.7-5.93c2.35-4.53-0.88-10.35-1.56-11.47
				c-4.22-7.04-3.2-13.26,2.87-17.52c1.76-1.23,2.04-1.99,2.01-2.11c-0.09-0.4-1.6-1.41-4.17-1.89c-2.53-0.47-3.82-1.46-3.84-2.95
				c-0.01-0.79,0.38-2.2,3.08-2.76c1.83-0.4,5.23-1.13,6.47-3.39c0.39-0.72-0.1-2.59-4.68-7.43l-0.37-0.39
				c-1.19-1.26-1.64-2.92-1.22-4.56c0.59-2.32,2.79-4.25,6.04-5.31c3.95-1.3,3.88-2.54,3.83-3.53c-0.03-0.54-1.11-2.14-3.9-4.15
				c-1.96-1.43-6.5-4.76-14.94-11.06c-8.77-6.55-8.71-19.9-8.67-21.34c-1.77-23.21-15.15-39.75-26.06-49.54
				c-6.41-5.75-12.74-9.91-17.26-12.55c11.13,17.34,14.01,35.37,8.79,54.89c0.43-0.27,0.87-0.53,1.36-0.78
				c3.98-2.04,10.87-3.7,21.1-0.03c0.94,0.34,1.42,1.37,1.09,2.3c-0.34,0.94-1.37,1.42-2.3,1.09c-16.86-6.04-22.95,3.67-23.22,4.11
				c-0.06,0.1-0.13,0.19-0.2,0.27c-1.7,4.78-3.79,9.5-6.16,14.17c-2.47,6.28-3.75,12.89-3.73,19.66c0.02,6.45,1.09,12.81,2.1,19.16
				c1.76,11.06,2.98,22.07-0.76,32.85c-3.29,9.48-8.74,18.04-14.02,26.5c-4.96,7.94-10.46,16.09-13.07,25.18
				c-1.21,4.2-1.67,8.64-0.47,12.9c0.99,3.54,3.02,6.54,5.52,9.14C305.83,220.95,308.35,211.91,314.29,204.24z M302.27,230.8
				c-3.59-4.77-5.52-10.46-4.82-16.84c1.01-9.21,5.96-17.66,10.68-25.43c5.45-8.98,11.49-17.7,15.74-27.34
				c1.98-4.5,3.57-9.31,4.06-14.22c0.65-6.46-0.18-13.05-1.17-19.44c-1.09-7.09-2.43-14.18-2.53-21.38
				c-0.04-3.04,0.17-6.03,0.61-8.99c-4.99,8.3-10.58,16.44-16.09,24.45c-10.51,15.29-20.44,29.72-25.33,43.92
				c-5.73,16.67-4.99,33.39,2.08,47.1C289.63,220.64,295.64,227.08,302.27,230.8z M250.98,186.3c0.15,0.26,0.21,0.54,0.22,0.83
				c9.58,14.77,22.34,27.29,37.31,36.58c-2.34-2.83-4.44-6-6.21-9.43c-7.53-14.59-8.34-32.32-2.29-49.93
				c5.05-14.67,15.11-29.3,25.77-44.79c24.19-35.18,49.19-71.56,18.43-112.9c-9.77,2.27-19.08,5.75-27.77,10.26
				c10.91,17.26,12.9,34.4,6.09,52.41c-5.94,15.7-17.64,29.96-28.94,43.75c-9.69,11.82-18.84,22.98-23.84,34.27
				C243.7,161.02,244.12,174.12,250.98,186.3z M246.44,145.91c5.19-11.75,14.5-23.09,24.35-35.1
				c22.42-27.35,45.61-55.63,22.56-92.01c-0.03-0.05-0.05-0.1-0.08-0.16c-7.5,4.19-14.49,9.16-20.88,14.81
				c2.85,12.45,0.88,25.08-6.02,38.55c-6.15,12.01-15.35,23.2-24.25,34.03c-3.42,4.17-6.66,8.1-9.74,12.09
				c-0.05,0.07-0.11,0.12-0.17,0.18c-0.05,1.42-0.09,2.85-0.09,4.28c0,16.92,3.56,33.02,9.95,47.61
				C241.32,162.32,242.78,154.2,246.44,145.91z"/>
			<path d="M349.37,87.67c11.16,5.66,16.21-0.43,16.43-0.72c0.61-0.78,1.73-0.93,2.52-0.33c0.79,0.6,0.94,1.73,0.34,2.52
				c-0.05,0.06-3.55,4.5-10.6,4.5c-2.85,0-6.29-0.73-10.31-2.77c-0.89-0.45-1.24-1.53-0.79-2.42
				C347.4,87.57,348.48,87.22,349.37,87.67z"/>
		</g>
	</g>
	<g>
		<g>
			<path d="M15.81,337.23v0.45H0v-0.45c5.18-0.55,7.45-3.18,7.45-9.09v-44.52c0-5.91-2.27-8.54-7.45-9.08v-0.45h9.08l30.25,57.05
				v-47.51c0-5.91-2.27-8.54-7.45-9.08v-0.45H47.7v0.45c-5.18,0.54-7.45,3.18-7.45,9.08v54.06h-1.82l-30.07-56.6v47.06
				C8.36,334.05,10.63,336.69,15.81,337.23z"/>
			<path d="M69.96,337.23v0.45H51.42v-0.45c5.18-0.55,7.45-3.18,7.45-9.09v-44.52c0-5.91-2.27-8.54-7.45-9.08v-0.45h18.53v0.45
				c-5.18,0.54-7.45,3.18-7.45,9.08v44.52C62.5,334.05,64.78,336.69,69.96,337.23z"/>
			<path d="M117.01,283.81c0,6.09-6.18,12.72-13.17,13.45l-0.09-0.36c5.81-1.64,9.72-6.63,9.72-12.45c0-5.45-3.45-9.54-10.08-9.45
				c-14.72,0-26.26,14.81-26.26,32.71c0,16.9,10.17,27.71,23.35,27.71c11.81,0,18.62-8.81,20.53-15.99
				c0.18-0.54,0.82-0.27,0.73,0.09c-1.73,7.63-9.08,18.53-23.08,18.53c-14.54,0-25.53-11.81-25.53-29.8
				c0-19.17,12.45-34.16,31.07-34.16C112.38,274.09,117.01,278.54,117.01,283.81z"/>
			<path d="M134.73,302.35v34.43h7.9c11.63,0,13.63-10.36,15.9-16.81l0.54,0.09l-4.54,17.62h-30.89v-0.45
				c5.18-0.55,7.45-3.18,7.45-9.09v-44.79c0-5.63-2.27-8.27-7.45-8.81v-0.45h30.89l4.54,17.62l-0.54,0.09
				c-2.27-6.45-4.27-16.81-15.9-16.81h-7.9v26.44h7.63c4.63,0,7.54-4.18,7.72-11.45h0.45v22.89h-0.45c-0.09-6.63-3-10.54-7.72-10.54
				H134.73z"/>
			<path d="M204.78,283.81c0,6.09-6.18,12.72-13.17,13.45l-0.09-0.36c5.81-1.64,9.72-6.63,9.72-12.45c0-5.45-3.45-9.54-10.08-9.45
				c-14.72,0-26.26,14.81-26.26,32.71c0,16.9,10.17,27.71,23.35,27.71c11.81,0,18.62-8.81,20.53-15.99
				c0.18-0.54,0.82-0.27,0.73,0.09c-1.73,7.63-9.08,18.53-23.08,18.53c-14.54,0-25.53-11.81-25.53-29.8
				c0-19.17,12.45-34.16,31.07-34.16C200.14,274.09,204.78,278.54,204.78,283.81z"/>
			<path d="M211.41,274.09h18.53v0.45c-5.18,0.54-7.45,3.18-7.45,9.08v53.15h6.09c11.63,0,13.63-10.36,15.9-16.81l0.54,0.09
				l-4.54,17.62h-29.07v-0.45c5.18-0.55,7.45-3.18,7.45-8.81v-44.79c0-5.91-2.27-8.54-7.45-9.08V274.09z"/>
			<path d="M257.93,302.35v34.43h7.9c11.63,0,13.63-10.36,15.9-16.81l0.54,0.09l-4.54,17.62h-30.89v-0.45
				c5.18-0.55,7.45-3.18,7.45-9.09v-44.79c0-5.63-2.27-8.27-7.45-8.81v-0.45h30.89l4.54,17.62l-0.54,0.09
				c-2.27-6.45-4.27-16.81-15.9-16.81h-7.9v26.44h7.63c4.63,0,7.54-4.18,7.72-11.45h0.45v22.89h-0.45c-0.09-6.63-3-10.54-7.72-10.54
				H257.93z"/>
			<path d="M303.08,337.23v0.45h-18.53v-0.45c5.18-0.55,7.45-3.18,7.45-9.09v-44.52c0-5.91-2.27-8.54-7.45-9.08v-0.45h18.53v0.45
				c-5.18,0.54-7.45,3.18-7.45,9.08v44.52C295.63,334.05,297.9,336.69,303.08,337.23z"/>
			<path d="M322.52,337.23v0.45h-17.17v-0.45c5.63-0.36,8.09-2.45,9.45-8.09l13.54-55.06h2.54l13.63,55.87
				c1.09,4.36,3.63,7,7.27,7.27v0.45h-18.99v-0.45c6.54-0.27,8.99-2.63,7.9-7.27l-5.18-21.44h-14.72l-5.18,21.44
				C314.62,334.15,317.16,336.78,322.52,337.23z M335.33,307.62L328.24,278l-7.18,29.62H335.33z"/>
			<path d="M393.47,337.23v0.45h-15.81v-0.45c5.18-0.55,7.45-3.18,7.45-9.09v-44.52c0-5.91-2.27-8.54-7.45-9.08v-0.45h9.08
				L417,331.15v-47.51c0-5.91-2.27-8.54-7.45-9.08v-0.45h15.81v0.45c-5.18,0.54-7.45,3.18-7.45,9.08v54.06h-1.82l-30.07-56.6v47.06
				C386.03,334.05,388.3,336.69,393.47,337.23z"/>
			<path d="M425.91,306.35c0-19.35,12.17-32.71,29.8-32.71c17.81,0,30.07,13.54,30.07,32.89c0,19.08-11.9,31.43-29.8,31.43
				C437.72,337.96,425.91,325.42,425.91,306.35z M481.87,306.53c0-18.72-10.72-31.98-26.35-31.98c-14.99,0-25.71,12.99-25.71,31.98
				c0,18.26,10.36,30.53,26.35,30.53C471.52,337.05,481.87,324.7,481.87,306.53z"/>
			<path d="M531.48,315.61c0-5.91-2.27-8.54-7.45-9.08v-0.45h18.53v0.45c-5.18,0.54-7.45,3.18-7.45,9.08v22.26h-0.45l-2.09-7.27
				c-3.72,4.18-9.08,7.45-16.72,7.45c-14.54,0-25.53-11.81-25.53-29.8c0-19.17,12.45-34.16,31.07-34.16
				c8.18,0,12.81,4.45,12.81,9.72c0,6.09-6.18,12.72-13.17,13.45l-0.09-0.36c5.81-1.64,9.72-6.63,9.72-12.45
				c0-5.45-3.45-9.45-10.08-9.45c-14.72,0.09-26.26,14.81-26.26,32.8c0,16.81,10.17,27.62,23.26,27.62c5.91,0,10.45-2.18,13.9-5.18
				V315.61z"/>
			<path d="M590.17,283.63c0-6.9-2.27-8.72-7.45-9.08v-0.45h15.81v0.45c-5.18,0.54-7.45,3.18-7.45,9.08v33.52
				c0,14.26-7.27,21.17-18.53,21.17c-11.54,0-18.9-7-18.9-20.08v-34.61c0-6.9-2.27-8.72-7.45-9.08v-0.45h18.53v0.45
				c-5.18,0.54-7.45,3.09-7.45,9.08v34.52c0,12.54,6.45,18.44,16.17,18.44c9.99,0,16.72-6.9,16.72-19.9V283.63z"/>
			<path d="M613.24,302.35v34.43h7.9c11.63,0,13.63-10.36,15.9-16.81l0.54,0.09l-4.54,17.62h-30.89v-0.45
				c5.18-0.55,7.45-3.18,7.45-9.09v-44.79c0-5.63-2.27-8.27-7.45-8.81v-0.45h30.89l4.54,17.62l-0.54,0.09
				c-2.27-6.45-4.27-16.81-15.9-16.81h-7.9v26.44h7.63c4.63,0,7.54-4.18,7.72-11.45h0.45v22.89h-0.45c-0.09-6.63-3-10.54-7.72-10.54
				H613.24z"/>
			<path d="M658.39,337.23v0.45h-18.53v-0.45c5.18-0.55,7.45-3.18,7.45-9.09v-44.52c0-5.91-2.27-8.54-7.45-9.08v-0.45h18.53v0.45
				c-5.18,0.54-7.45,3.18-7.45,9.08v44.52C650.94,334.05,653.22,336.69,658.39,337.23z"/>
			<path d="M673.11,303.8v24.35c0,5.81,2.27,8.54,7.45,9.09v0.45h-18.53v-0.45c5.18-0.55,7.45-3.27,7.45-9.09v-44.52
				c0-5.81-2.27-8.54-7.45-9.08v-0.45h19.26c8.36,0,16.99,4.27,16.99,14.08c0,7.27-4.82,12.45-12.99,14.54l7.45,25.71
				c1.64,5.63,6,8.81,9.9,8.81v0.45h-18.62v-0.45c5.09,0,6.36-3.18,4.72-8.81l-7.18-24.98c-1.73,0.27-3.45,0.36-5.36,0.36H673.11z
				 M676.2,302.89c10.54,0,17.99-4.72,17.99-14.63c0-8.36-5.27-13.26-13.36-13.26h-7.72v27.89H676.2z"/>
			<path d="M720.72,337.23v0.45h-17.17v-0.45c5.63-0.36,8.09-2.45,9.45-8.09l13.54-55.06h2.54l13.63,55.87
				c1.09,4.36,3.63,7,7.27,7.27v0.45h-18.99v-0.45c6.54-0.27,8.99-2.63,7.9-7.27l-5.18-21.44h-14.72l-5.18,21.44
				C712.81,334.15,715.36,336.78,720.72,337.23z M733.53,307.62L726.44,278l-7.18,29.62H733.53z"/>
		</g>
		<g>
			<path d="M114.93,374.05v1.74h-13.44v-19.01h13.04v1.74h-11.03v6.76h9.83v1.71h-9.83v7.06H114.93z"/>
			<path d="M125.99,373.48l0.79-1.55c1.36,1.33,3.78,2.31,6.27,2.31c3.56,0,5.11-1.49,5.11-3.37c0-5.21-11.71-2.01-11.71-9.04
				c0-2.8,2.17-5.21,7.01-5.21c2.15,0,4.37,0.63,5.89,1.68l-0.68,1.6c-1.63-1.06-3.53-1.57-5.21-1.57c-3.48,0-5.02,1.55-5.02,3.45
				c0,5.21,11.71,2.06,11.71,8.99c0,2.8-2.23,5.19-7.09,5.19C130.2,375.95,127.41,374.95,125.99,373.48z"/>
			<path d="M156.09,358.52h-6.68v-1.74h15.37v1.74h-6.68v17.27h-2.01V358.52z"/>
			<path d="M189.59,374.05v1.74h-13.44v-19.01h13.04v1.74h-11.03v6.76h9.83v1.71h-9.83v7.06H189.59z M182.83,355.23h-1.9l3.72-3.37
				h2.58L182.83,355.23z"/>
			<path d="M206.17,358.52h-6.68v-1.74h15.37v1.74h-6.68v17.27h-2.01V358.52z"/>
			<path d="M226.22,356.78h2.01v19.01h-2.01V356.78z"/>
			<path d="M240.89,366.28c0-5.57,4.24-9.67,9.97-9.67c2.77,0,5.27,0.92,6.95,2.77l-1.28,1.28c-1.55-1.57-3.45-2.25-5.62-2.25
				c-4.59,0-8.04,3.37-8.04,7.88c0,4.51,3.45,7.87,8.04,7.87c2.17,0,4.07-0.68,5.62-2.28l1.28,1.28c-1.68,1.85-4.18,2.8-6.98,2.8
				C245.13,375.95,240.89,371.85,240.89,366.28z"/>
			<path d="M281.7,370.71H271.1l-2.28,5.08h-2.09l8.69-19.01h1.98l8.69,19.01h-2.12L281.7,370.71z M280.96,369.08l-4.56-10.21
				l-4.56,10.21H280.96z"/>
			<path d="M327.56,363.3c0,4.05-2.93,6.49-7.77,6.49h-5.11v6h-2.01v-19.01h7.12C324.62,356.78,327.56,359.22,327.56,363.3z
				 M325.55,363.3c0-3.04-2.01-4.78-5.81-4.78h-5.05v9.51h5.05C323.54,368.02,325.55,366.28,325.55,363.3z"/>
			<path d="M353.51,374.05v1.74h-13.44v-19.01h13.04v1.74h-11.03v6.76h9.83v1.71h-9.83v7.06H353.51z"/>
			<path d="M379.37,375.79l-4.35-6.11c-0.49,0.06-0.98,0.08-1.52,0.08h-5.11v6.03h-2.01v-19.01h7.12c4.83,0,7.77,2.44,7.77,6.52
				c0,2.99-1.58,5.08-4.35,5.98l4.64,6.52H379.37z M379.26,363.3c0-3.04-2.01-4.78-5.81-4.78h-5.05v9.53h5.05
				C377.25,368.05,379.26,366.28,379.26,363.3z"/>
			<path d="M392.36,373.48l0.79-1.55c1.36,1.33,3.78,2.31,6.27,2.31c3.56,0,5.11-1.49,5.11-3.37c0-5.21-11.71-2.01-11.71-9.04
				c0-2.8,2.17-5.21,7.01-5.21c2.15,0,4.37,0.63,5.89,1.68l-0.68,1.6c-1.63-1.06-3.53-1.57-5.21-1.57c-3.48,0-5.02,1.55-5.02,3.45
				c0,5.21,11.71,2.06,11.71,8.99c0,2.8-2.23,5.19-7.09,5.19C396.57,375.95,393.78,374.95,392.36,373.48z"/>
			<path d="M417.36,366.28c0-5.54,4.24-9.67,9.99-9.67c5.7,0,9.97,4.1,9.97,9.67c0,5.57-4.26,9.67-9.97,9.67
				C421.6,375.95,417.36,371.82,417.36,366.28z M435.31,366.28c0-4.54-3.39-7.88-7.96-7.88c-4.59,0-8.01,3.34-8.01,7.88
				c0,4.53,3.42,7.87,8.01,7.87C431.92,374.16,435.31,370.82,435.31,366.28z"/>
			<path d="M465.88,356.78v19.01h-1.66L452,360.36v15.43h-2.01v-19.01h1.66l12.25,15.43v-15.43H465.88z"/>
			<path d="M492.15,370.71h-10.59l-2.28,5.08h-2.09l8.69-19.01h1.98l8.69,19.01h-2.12L492.15,370.71z M491.42,369.08l-4.56-10.21
				l-4.56,10.21H491.42z"/>
			<path d="M507.86,356.78h2.01v17.27h10.65v1.74h-12.66V356.78z"/>
			<path d="M532.02,356.78h2.01v19.01h-2.01V356.78z"/>
			<path d="M562.09,374.05v1.74H546.5v-1.38l12.6-15.89h-12.41v-1.74h15.07v1.39l-12.57,15.89H562.09z"/>
			<path d="M586.13,370.71h-10.59l-2.28,5.08h-2.09l8.69-19.01h1.98l8.69,19.01h-2.12L586.13,370.71z M585.4,369.08l-4.56-10.21
				l-4.56,10.21H585.4z"/>
			<path d="M601.84,356.78h7.74c6.08,0,10.18,3.91,10.18,9.51c0,5.59-4.1,9.5-10.18,9.5h-7.74V356.78z M609.47,374.05
				c5.05,0,8.31-3.2,8.31-7.77c0-4.56-3.26-7.77-8.31-7.77h-5.62v15.53H609.47z"/>
			<path d="M644.09,370.71h-10.59l-2.28,5.08h-2.09l8.69-19.01h1.98l8.69,19.01h-2.12L644.09,370.71z M643.35,369.08l-4.56-10.21
				l-4.56,10.21H643.35z"/>
		</g>
	</g>
</g>
</svg>
