<?xml version="1.0" encoding="utf-8"?>
<!-- Generator: Adobe Illustrator 27.9.0, SVG Export Plug-In . SVG Version: 6.00 Build 0)  -->
<svg version="1.1" id="Layer_1" xmlns="http://www.w3.org/2000/svg" xmlns:xlink="http://www.w3.org/1999/xlink" x="0px" y="0px"
	 viewBox="0 0 1096.79 318.87" style="enable-background:new 0 0 1096.79 318.87;" xml:space="preserve">
<g>
	<g>
		<path d="M378.39,136.93c-16.53-1.21-34.53,4.21-46.43,16.08c-3.72,3.71-7.12,7.98-10.12,12.58c1.07-2.97,1.84-6.05,2.3-9.26
			c1.19-8.29,1.37-16.61,4.3-24.58c1.52-4.14,3.79-8.6,7.79-10.84c3.91-2.19,9.25-1.73,11.4,2.64c1.88,3.8-0.28,8.85-4.52,9.81
			c-2.04,0.46-4.6-0.2-5.25-2.43c-0.51-1.74,1.27-4.35,3.18-2.8c2.08,1.69,5.07-1.27,2.97-2.97c-3.02-2.46-7.72-1.97-9.72,1.63
			c-1.99,3.57-0.04,8.16,3.39,9.97c7.83,4.14,16.34-4.58,14.64-12.42c-2.06-9.51-13.37-11.13-20.23-5.67
			c-7.9,6.29-9.93,18.02-11.07,27.43c-0.62,5.09-0.84,10.19-2.18,15.15c0.01-0.61,0.02-1.21,0.02-1.82c0-6.66-0.54-13.49-1.55-20.38
			c2.17-9.46,3.21-19.19,2.62-28.89c-0.96-15.77-6.19-30.65-16.12-43.01c-9.42-11.73-22.3-20.43-36.6-25.03
			c-0.01,0-0.01,0-0.02-0.01c-0.05-0.02-0.1-0.03-0.15-0.05c-1.15-0.37-2,0.23-2.37,1.07c-0.44,0.73-0.48,1.68,0.32,2.44
			c6.9,6.63,5.37,17.98,5.43,26.69c0.06,7.99,1.11,15.58,4.96,22.67c3.09,5.71,7.44,10.66,11.96,15.28
			c9.23,9.42,20.46,18.14,25.51,30.7c0.87,6.26,1.32,12.46,1.32,18.51c0,3.09-0.1,6.16-0.28,9.21c-1.12-7.18-3.18-14.21-6.34-20.91
			c-5.62-11.89-14.38-22.07-24.71-30.13c-5.17-4.03-10.71-7.57-16.53-10.59c-6.16-3.2-12.74-5.49-18.92-8.64
			c-6.02-3.07-11.65-7.16-14.25-13.63c-2.43-6.07-1.31-13.25,4.95-16.44c6.21-3.16,14.01,0.22,15.92,6.97
			c0.85,3.01,0.32,7.67-3.32,8.52c-1.21,0.28-3.08,0.1-3.72-1.16c-0.62-1.22,0.36-3.49,1.94-3.19c2.65,0.5,3.77-3.55,1.12-4.06
			c-7.49-1.42-10.31,9.67-3.11,12.24c8.12,2.9,12.95-6.19,11.25-13.05c-1.72-6.97-8.68-12.23-15.88-11.68
			c-7.15,0.54-13.24,5.83-14.39,12.95c-1.19,7.32,2.5,14.93,7.83,19.8c6.63,6.06,15.3,8.85,23.32,12.51
			c15.65,7.15,30.06,17.9,39.62,32.37c7.48,11.32,11.2,24.06,11.92,37.21c-3.06-14.5-9.64-28.12-19.93-38.92
			c-11.81-12.4-27.49-20.93-44.31-24.13c-0.4-0.08-0.77-0.04-1.09,0.07c-0.02,0-0.03,0.01-0.05,0.02c-0.06,0.02-0.13,0.04-0.19,0.07
			c-0.84,0.33-1.48,1.11-1.29,2.19c0.01,0.29,0.08,0.57,0.21,0.82c4.23,14.91,11.94,29.07,24.33,38.71
			c10.08,7.84,22.54,11.96,35.3,11.53c3.94,11.21,6.04,23.8,4.19,35.56c-4.03,13.5-9.86,26.24-17.21,37.93
			c0.19-2.95-0.13-5.98-1.06-9.09c-2.67-8.89-8.57-15.9-14.49-22.8c-5.97-6.96-11.49-16.89-4.85-25.44
			c5.17-6.66,18.28-6.03,18.91,3.84c0.24,3.79-1.83,7.97-5.91,8.52c-1.98,0.26-4.73-0.41-5.35-2.62c-0.5-1.78,0.71-4.11,2.64-4.16
			c2.7-0.08,2.71-4.28,0-4.21c-5.05,0.14-8.35,5.77-6.37,10.39c2.08,4.85,8.56,5.98,12.94,3.76c8.84-4.48,7.91-18.16-0.45-22.56
			c-9.84-5.17-21.13,1.83-23.18,12.12c-2.65,13.3,8.25,21.71,15.25,31.3c3.85,5.27,7.35,11.53,7.87,18.17
			c0.43,5.51-1.64,10.72-4.65,15.24c-1.97,2.54-4.02,5.02-6.14,7.44c-0.83-1.73-1.66-3.46-2.48-5.2
			c5.09-17.44-4.05-35.51-20.89-42.04c-1.09-0.42-2.27,0.47-2.59,1.47c-2.79,8.83-2.52,19.18,2.01,27.42
			c3.81,6.93,10.53,13.04,18.05,15.74c0.94,1.99,1.89,3.98,2.85,5.97c-28.27,30.36-68.56,49.38-113.22,49.38
			c-18.38,0-36.02-3.23-52.39-9.14c-2.41-14.06,0.35-26.35,8.22-36.53c20.99-27.16,71.43-32.1,81.32-32.81
			c11.25-0.81,18.53-4.25,21.64-10.23c3.26-6.27,1.02-14.18-2.16-19.49c-6.27-10.46,0.25-15.03,2.39-16.53
			c3.54-2.46,5.06-5.01,4.51-7.56c-0.61-2.86-3.61-4.46-6.2-5.33c2.81-0.93,6-2.58,7.74-5.74c2.77-5.05-3.45-11.61-6.79-15.13
			l-0.47-0.5c-0.46-0.48-0.6-0.99-0.46-1.56c0.28-1.08,1.67-2.6,4.77-3.61c6-1.97,8.45-4.76,8.2-9.31c-0.18-3.35-3.91-6.71-7-8.94
			c-2.53-1.84-8.42-6.17-19.38-14.35c-9.82-7.34-9.4-23.81-9.4-23.98l0-0.13l-0.01-0.13c-2.39-31.87-20.66-54.45-35.56-67.79
			c-10.07-9.01-19.83-15.05-25.88-18.38c8.74-1.54,17.74-2.35,26.92-2.35c35.05,0,68.1,11.43,95.58,33.04
			c1.02,0.8,2.49,0.62,3.29-0.39c0.8-1.02,0.62-2.49-0.39-3.29C229.6,11.77,195.54,0,159.44,0c-11.51,0-22.83,1.22-33.83,3.59
			l-4.27,0.98C93.32,11.4,67.61,25.78,46.7,46.7C16.58,76.81,0,116.85,0,159.44c0,42.59,16.58,82.62,46.7,112.74
			c30.11,30.11,70.15,46.7,112.74,46.7c42.59,0,82.62-16.58,112.74-46.7c5.46-5.46,10.47-11.25,15.02-17.32
			c0.3,0.09,0.62,0.12,0.98,0.06c3.01-0.47,6.01-0.98,9.01-1.49c0.16,0.05,0.32,0.1,0.48,0.11c0.14,0.16,0.31,0.31,0.52,0.44
			c15.33,9.18,34.72,5.19,45.43-8.87c0.51-0.3,0.77-0.79,0.8-1.34c0.17-0.85-0.31-1.81-1.02-2.25c-7.52-4.72-17.1-7.11-25.91-5.23
			c-7.9,1.68-14.93,7.28-20.54,12.93c-2.15,0.37-4.31,0.73-6.46,1.08c5.3-7.6,9.89-15.61,13.75-23.95c7.46-9.68,24.66-1,34.66-3.56
			c11.19-2.87,18.06-14.61,15.2-25.78c-2.25-8.79-13.13-17.1-21.78-10.85c-7.45,5.38-6.91,19.18,2.29,22.52
			c4.06,1.47,9.11-0.21,10.54-4.54c1.39-4.17-0.55-8.23-4.51-9.89c-2.5-1.05-3.58,3.03-1.12,4.06c1.94,0.81,2.35,3.5,1.29,5.15
			c-1.44,2.24-4.52,1.78-6.35,0.35c-3.41-2.67-3.97-7.7-2.06-11.43c4.2-8.2,14.46-2.6,17.04,3.85c3.39,8.48-1.09,18.32-9.41,21.75
			c-8.44,3.48-17.27-1.36-25.92-0.46c-2.31,0.24-4.65,0.81-6.81,1.73c4.42-10.94,7.61-22.37,9.51-34.14
			c1.38-3.84,3.06-7.64,5.03-11.28c11.62,2.69,26.01-0.42,35.8-6.86c5.03-3.3,8.65-7.69,11.54-12.91
			c2.72-4.92,5.09-10.42,10.26-13.21C381.41,139.79,380.34,137.07,378.39,136.93z M270.65,153.11
			c-10.31-8.1-17.09-19.55-21.25-31.82c15.88,14.51,32.07,28.66,48.58,42.45C288.06,162.98,278.56,159.33,270.65,153.11z
			 M255.9,121.53c5.22,1.76,10.25,4.05,15.01,6.89c12.68,7.54,23.17,18.56,29.48,31.89C285.3,147.68,270.46,134.75,255.9,121.53z
			 M255.39,240.98c-3.14-5.71-3.83-12.57-2.8-19c4.95,10.26,9.65,20.65,14.46,30.98C262.18,250.15,257.99,245.73,255.39,240.98z
			 M270.21,249.84c-4.44-9.56-8.79-19.15-13.35-28.65C266.32,227.42,271.45,238.54,270.21,249.84z M53.03,47.18
			c6.07,32.97-16.81,60.81-38.96,87.76c-2.91,3.54-5.89,7.16-8.77,10.77C8.72,107.05,26.39,72.44,53.03,47.18z M4.68,159.44
			c0-1.87,0.05-3.72,0.11-5.57c0.08-0.08,0.16-0.14,0.23-0.23c4.01-5.19,8.21-10.31,12.67-15.73
			c11.57-14.08,23.54-28.64,31.54-44.26C58.2,76.12,60.77,59.7,57.05,43.5c8.31-7.35,17.41-13.82,27.16-19.26
			c0.03,0.07,0.06,0.14,0.1,0.2c29.98,47.33-0.18,84.11-29.35,119.69c-12.81,15.62-24.91,30.38-31.67,45.66
			c-4.76,10.79-6.66,21.35-5.68,31.58C9.31,202.39,4.68,181.44,4.68,159.44z M29.5,243.4c-0.01-0.37-0.1-0.73-0.29-1.07
			c-8.92-15.84-9.47-32.88-1.62-50.65c6.5-14.7,18.4-29.21,31-44.58c14.71-17.94,29.91-36.48,37.65-56.91
			c8.87-23.42,6.28-45.72-7.92-68.17c11.3-5.87,23.42-10.4,36.13-13.35c40.01,53.78,7.5,101.09-23.97,146.85
			c-13.86,20.15-26.95,39.19-33.52,58.26c-7.87,22.9-6.81,45.96,2.98,64.94c2.3,4.46,5.03,8.58,8.08,12.26
			C58.56,278.9,41.96,262.61,29.5,243.4z M74.11,276.58c-9.2-17.83-10.16-39.59-2.71-61.27c6.36-18.47,19.27-37.25,32.95-57.13
			c7.16-10.42,14.44-21,20.93-31.8c-0.57,3.84-0.84,7.74-0.79,11.69c0.13,9.36,1.87,18.59,3.29,27.81
			c1.28,8.31,2.36,16.88,1.52,25.29c-0.64,6.39-2.71,12.65-5.28,18.5c-5.52,12.54-13.38,23.89-20.47,35.56
			c-6.14,10.11-12.58,21.1-13.89,33.08c-0.91,8.3,1.61,15.7,6.27,21.91C87.31,295.37,79.48,286.99,74.11,276.58z M94.56,288.78
			c-1.55-5.53-0.95-11.32,0.62-16.78c3.4-11.82,10.55-22.42,17-32.75c6.88-11,13.97-22.14,18.24-34.47
			c4.86-14.02,3.27-28.34,0.98-42.73c-1.31-8.26-2.7-16.53-2.73-24.92c-0.03-8.81,1.63-17.41,4.85-25.58
			c3.08-6.06,5.8-12.2,8.02-18.43c0.1-0.11,0.19-0.23,0.26-0.36c0.35-0.58,8.27-13.21,30.2-5.35c1.22,0.44,2.56-0.2,3-1.41
			c0.44-1.22-0.2-2.56-1.41-3c-13.31-4.77-22.27-2.61-27.45,0.04c-0.63,0.32-1.21,0.66-1.77,1.01c6.78-25.38,3.04-48.84-11.44-71.39
			c5.87,3.43,14.11,8.85,22.45,16.32c14.2,12.73,31.59,34.24,33.9,64.43c-0.04,1.86-0.12,19.24,11.28,27.75
			c10.98,8.2,16.89,12.54,19.44,14.39c3.63,2.61,5.03,4.7,5.07,5.4c0.07,1.3,0.16,2.91-4.98,4.6c-4.22,1.37-7.08,3.89-7.85,6.9
			c-0.54,2.13,0.04,4.29,1.59,5.93l0.48,0.51c5.96,6.29,6.6,8.72,6.09,9.66c-1.61,2.93-6.04,3.89-8.42,4.41
			c-3.51,0.73-4.02,2.57-4,3.59c0.02,1.93,1.7,3.23,4.99,3.84c3.35,0.63,5.31,1.94,5.42,2.46c0.03,0.16-0.32,1.15-2.62,2.74
			c-7.9,5.54-9.22,13.63-3.73,22.78c0.87,1.46,5.08,9.03,2.02,14.92c-2.3,4.43-8.3,7.03-17.82,7.72
			c-10.25,0.74-62.48,5.88-84.69,34.62c-7.72,9.98-11,21.74-9.81,35C98.49,297.29,95.85,293.38,94.56,288.78z M317.76,240.54
			c5.88-1.51,12.28-0.57,17.96,1.75c-10.39,1.74-20.75,3.71-31.12,5.58C308.51,244.59,312.92,241.79,317.76,240.54z M337,246.32
			c-8.74,8.42-21.77,10.72-32.99,5.91C315.01,250.26,325.98,248.16,337,246.32z M304.75,121.6c-9.32-10.02-21.37-18.66-27.06-31.49
			c-3.91-8.82-2.77-18.46-3.16-27.83c-0.13-3.13-0.33-6.21-0.95-9.12c17.93,21.26,31.13,48.52,37.09,75.54
			C308.85,126.22,306.86,123.86,304.75,121.6z M315.14,127.31c-6.07-27.15-19.22-54.49-37.04-76.04
			c12.23,6.53,22.58,16.49,29.32,28.7C315.34,94.31,317.15,111.16,315.14,127.31z M334.36,156.57c8.34-8.59,19.95-13.59,31.85-15.1
			c-13.27,7.48-26.43,15.21-39.02,23.77C329.39,162.13,331.79,159.21,334.36,156.57z M358.06,161.48
			c-4.84,3.99-10.82,6.26-16.88,7.62c-4.57,1.02-9.37,1.65-14.07,1.28c13.78-9.53,28.28-18,42.88-26.21
			C366.03,149.89,363.54,156.96,358.06,161.48z"/>
		<path d="M155.07,118.21c5.23,2.65,9.7,3.6,13.41,3.6c9.17,0,13.73-5.77,13.79-5.85c0.79-1.03,0.59-2.5-0.44-3.28
			c-1.02-0.78-2.48-0.59-3.27,0.42c-0.3,0.37-6.86,8.3-21.38,0.93c-1.15-0.59-2.56-0.12-3.15,1.03
			C153.46,116.21,153.92,117.62,155.07,118.21z"/>
	</g>
	<g>
		<path d="M431.41,117.85c-9.67-1.02-13.9-5.94-13.9-16.96V13.06l56.13,105.64h3.39V17.8c0-11.02,4.24-15.94,13.9-16.96V0h-29.51
			v0.85c9.67,1.02,13.9,5.93,13.9,16.96v88.69L418.87,0h-16.96v0.85c9.67,1.02,13.9,5.93,13.9,16.96v83.09
			c0,11.02-4.24,15.94-13.9,16.96v0.85h29.51V117.85z"/>
		<path d="M532.48,117.85c-9.67-1.02-13.9-5.94-13.9-16.96V17.8c0-11.02,4.24-15.94,13.9-16.96V0h-34.59v0.85
			c9.67,1.02,13.9,5.93,13.9,16.96v83.09c0,11.02-4.24,15.94-13.9,16.96v0.85h34.59V117.85z"/>
		<path d="M586.06,119.38c26.11,0,39.85-20.35,43.07-34.59c0.17-0.68-1.02-1.19-1.36-0.17c-3.56,13.4-16.28,29.84-38.32,29.84
			c-24.59,0-43.58-20.18-43.58-51.72c0-33.41,21.54-61.05,49.01-61.05c12.38-0.17,18.82,7.46,18.82,17.64
			c0,10.85-7.29,20.18-18.14,23.23l0.17,0.68c13.06-1.36,24.59-13.74,24.59-25.1C620.31,8.31,611.66,0,596.4,0
			c-34.76,0-57.99,27.98-57.99,63.76C538.41,97.33,558.93,119.38,586.06,119.38z"/>
		<path d="M698.82,85.8l-1.02-0.17c-4.24,12.04-7.97,31.37-29.68,31.37h-14.75V52.74h14.24c8.82,0,14.24,7.29,14.41,19.67h0.85
			V29.67h-0.85c-0.34,13.57-5.77,21.37-14.41,21.37h-14.24V1.7h14.75c21.71,0,25.44,19.33,29.68,31.37l1.02-0.17L690.34,0h-57.65
			v0.85c9.67,1.02,13.9,5.93,13.9,16.45v83.6c0,11.02-4.24,15.94-13.9,16.96v0.85h57.65L698.82,85.8z"/>
		<path d="M749.86,119.38c26.11,0,39.85-20.35,43.07-34.59c0.17-0.68-1.02-1.19-1.36-0.17c-3.56,13.4-16.28,29.84-38.32,29.84
			c-24.59,0-43.58-20.18-43.58-51.72c0-33.41,21.54-61.05,49.01-61.05c12.38-0.17,18.82,7.46,18.82,17.64
			c0,10.85-7.29,20.18-18.14,23.23l0.17,0.68c13.06-1.36,24.59-13.74,24.59-25.1c0-9.83-8.65-18.14-23.91-18.14
			c-34.76,0-57.99,27.98-57.99,63.76C702.21,97.33,722.73,119.38,749.86,119.38z"/>
		<path d="M859.24,85.8l-1.02-0.17c-4.24,12.04-7.97,31.37-29.67,31.37h-11.36V17.8c0-11.02,4.24-15.94,13.9-16.96V0h-34.59v0.85
			c9.67,1.02,13.9,5.93,13.9,16.96v83.6c0,10.51-4.24,15.43-13.9,16.45v0.85h54.26L859.24,85.8z"/>
		<path d="M928.76,85.8l-1.02-0.17C923.5,97.67,919.77,117,898.07,117h-14.75V52.74h14.24c8.82,0,14.24,7.29,14.41,19.67h0.85V29.67
			h-0.85c-0.34,13.57-5.77,21.37-14.41,21.37h-14.24V1.7h14.75c21.71,0,25.44,19.33,29.68,31.37l1.02-0.17L920.28,0h-57.65v0.85
			c9.67,1.02,13.9,5.93,13.9,16.45v83.6c0,11.02-4.24,15.94-13.9,16.96v0.85h57.65L928.76,85.8z"/>
		<path d="M967.59,117.85c-9.67-1.02-13.9-5.94-13.9-16.96V17.8c0-11.02,4.24-15.94,13.9-16.96V0H933v0.85
			c9.67,1.02,13.9,5.93,13.9,16.96v83.09c0,11.02-4.24,15.94-13.9,16.96v0.85h34.59V117.85z"/>
		<path d="M1003.87,117.85c-10-0.85-14.75-5.77-12.89-13.57l9.67-40.02h27.47l9.67,40.02c2.03,8.65-2.54,13.06-14.75,13.57v0.85
			h35.44v-0.85c-6.78-0.51-11.53-5.43-13.57-13.57L1019.47,0h-4.75l-25.27,102.76c-2.54,10.51-7.12,14.41-17.64,15.09v0.85h32.05
			V117.85z M1014.56,7.29l13.23,55.28h-26.62L1014.56,7.29z"/>
		<path d="M490.93,150.73h-29.51v0.85c9.67,1.02,13.9,5.93,13.9,16.96v88.69l-56.47-106.49h-16.96v0.85
			c9.67,1.02,13.9,5.93,13.9,16.96v83.09c0,11.02-4.24,15.94-13.9,16.96v0.85h29.51v-0.85c-9.67-1.02-13.9-5.94-13.9-16.96v-87.84
			l56.13,105.64h3.39V168.53c0-11.02,4.24-15.94,13.9-16.96V150.73z"/>
		<path d="M547.57,149.88c-32.9,0-55.62,24.93-55.62,61.05c0,35.61,22.04,59.01,56.13,59.01c33.41,0,55.62-23.06,55.62-58.67
			C603.7,175.15,580.8,149.88,547.57,149.88z M548.42,268.24c-29.84,0-49.18-22.89-49.18-56.98c0-35.44,20.01-59.69,47.99-59.69
			c29.17,0,49.18,24.76,49.18,59.69C596.4,245.18,577.07,268.24,548.42,268.24z"/>
		<path d="M675.08,211.26c9.67,1.02,13.9,5.94,13.9,16.96v27.3c-6.44,5.6-14.92,9.67-25.94,9.67c-24.42,0-43.41-20.18-43.41-51.55
			c0-33.58,21.54-61.04,49.01-61.21c12.38,0,18.82,7.46,18.82,17.64c0,10.85-7.29,20.18-18.14,23.23l0.17,0.68
			c13.06-1.36,24.59-13.74,24.59-25.1c0-9.83-8.65-18.14-23.91-18.14c-34.76,0-57.99,27.98-57.99,63.76
			c0,33.58,20.52,55.62,47.65,55.62c14.24,0,24.25-6.1,31.2-13.91l3.9,13.57h0.85v-41.54c0-11.02,4.24-15.94,13.9-16.96v-0.85
			h-34.59V211.26z"/>
		<path d="M814.13,150.73h-29.51v0.85c9.67,0.68,13.9,4.07,13.9,16.96v61.72c0,24.25-12.55,37.14-31.2,37.14
			c-18.14,0-30.18-11.02-30.18-34.42v-64.44c0-11.19,4.24-15.94,13.9-16.96v-0.85h-34.59v0.85c9.67,0.68,13.9,4.07,13.9,16.96v64.61
			c0,24.42,13.73,37.47,35.27,37.47c21.03,0,34.59-12.89,34.59-39.51v-62.57c0-11.02,4.24-15.94,13.9-16.96V150.73z"/>
		<path d="M856.35,152.42c21.71,0,25.44,19.33,29.68,31.37l1.02-0.17l-8.48-32.9h-57.65v0.85c9.67,1.02,13.9,5.93,13.9,16.45v83.6
			c0,11.02-4.24,15.94-13.9,16.96v0.85h57.65l8.48-32.9l-1.02-0.17c-4.24,12.04-7.97,31.37-29.68,31.37h-14.75v-64.27h14.24
			c8.82,0,14.24,7.29,14.41,19.67h0.85V180.4h-0.85c-0.34,13.57-5.77,21.37-14.41,21.37h-14.24v-49.34H856.35z"/>
		<path d="M891.28,151.58c9.67,1.02,13.9,5.93,13.9,16.96v83.09c0,11.02-4.24,15.94-13.9,16.96v0.85h34.59v-0.85
			c-9.67-1.02-13.9-5.94-13.9-16.96v-83.09c0-11.02,4.24-15.94,13.9-16.96v-0.85h-34.59V151.58z"/>
		<path d="M989.96,252.13l-13.9-47.99c15.26-3.9,24.25-13.57,24.25-27.13c0-18.31-16.11-26.28-31.71-26.28h-35.95v0.85
			c9.67,1.02,13.9,6.1,13.9,16.96v83.09c0,10.85-4.24,15.94-13.9,16.96v0.85h34.59v-0.85c-9.67-1.02-13.9-6.1-13.9-16.96v-45.45
			h5.77c3.56,0,6.78-0.17,10-0.68l13.4,46.63c3.05,10.51,0.68,16.45-8.82,16.45v0.85h34.76v-0.85
			C1001.16,268.58,993.02,262.64,989.96,252.13z M959.1,204.48h-5.77v-52.06h14.41c15.09,0,24.93,9.16,24.93,24.76
			C992.68,195.66,978.77,204.48,959.1,204.48z"/>
		<path d="M1083.22,255.01l-25.44-104.29h-4.75l-25.27,102.76c-2.54,10.51-7.12,14.41-17.64,15.09v0.85h32.05v-0.85
			c-10-0.85-14.75-5.77-12.89-13.57l9.67-40.02h27.47l9.67,40.02c2.03,8.65-2.54,13.06-14.75,13.57v0.85h35.44v-0.85
			C1090.01,268.07,1085.26,263.15,1083.22,255.01z M1039.48,213.3l13.4-55.28l13.23,55.28H1039.48z"/>
		<polygon points="401.91,318.67 403.93,318.67 403.93,310.57 413.8,310.57 413.8,308.82 403.93,308.82 403.93,301.32 415,301.32 
			415,299.58 401.91,299.58 		"/>
		<path d="M432.12,299.58l-8.73,19.09h2.1l2.29-5.1h10.63l2.29,5.1h2.13l-8.73-19.09H432.12z M428.52,311.93l4.58-10.25l4.58,10.25
			H428.52z"/>
		<polygon points="464.13,313.73 455.84,299.58 454.18,299.58 454.18,318.67 456.11,318.67 456.11,303.48 463.61,316.24 
			464.57,316.24 472.07,303.4 472.07,318.67 474,318.67 474,299.58 472.34,299.58 		"/>
		<path d="M494.07,299.58l-8.73,19.09h2.1l2.29-5.1h10.63l2.29,5.1h2.13l-8.73-19.09H494.07z M490.47,311.93l4.58-10.25l4.58,10.25
			H490.47z"/>
		<path d="M524.22,301.21c2.18,0,4.09,0.68,5.64,2.26l1.28-1.28c-1.69-1.85-4.2-2.78-6.98-2.78c-5.75,0-10.01,4.12-10.01,9.71
			s4.25,9.71,9.98,9.71c2.81,0,5.32-0.96,7.01-2.81l-1.28-1.28c-1.55,1.61-3.46,2.29-5.64,2.29c-4.61,0-8.07-3.38-8.07-7.91
			S519.62,301.21,524.22,301.21z"/>
		<polygon points="545.66,309.83 555.53,309.83 555.53,308.11 545.66,308.11 545.66,301.32 556.73,301.32 556.73,299.58 
			543.64,299.58 543.64,318.67 557.14,318.67 557.14,316.92 545.66,316.92 		"/>
		<polygon points="552.17,294.64 548.44,298.02 550.35,298.02 554.76,294.64 		"/>
		<path d="M583.61,310.43c0,4.53-2.13,6.6-5.86,6.6c-3.71,0-5.83-2.07-5.83-6.6v-10.85h-2.02v10.93c0,5.48,2.97,8.32,7.85,8.32
			s7.83-2.84,7.83-8.32v-10.93h-1.96V310.43z"/>
		<polygon points="596.45,301.32 603.16,301.32 603.16,318.67 605.18,318.67 605.18,301.32 611.89,301.32 611.89,299.58 
			596.45,299.58 		"/>
		<rect x="623.28" y="299.58" width="2.02" height="19.09"/>
		<path d="M648.07,301.21c2.18,0,4.09,0.68,5.64,2.26l1.28-1.28c-1.69-1.85-4.2-2.78-6.98-2.78c-5.75,0-10.01,4.12-10.01,9.71
			s4.25,9.71,9.98,9.71c2.81,0,5.32-0.96,7.01-2.81l-1.28-1.28c-1.55,1.61-3.46,2.29-5.64,2.29c-4.61,0-8.07-3.38-8.07-7.91
			S643.46,301.21,648.07,301.21z"/>
		<path d="M672.66,299.58l-8.73,19.09h2.1l2.29-5.1h10.63l2.29,5.1h2.13l-8.73-19.09H672.66z M669.06,311.93l4.58-10.25l4.58,10.25
			H669.06z"/>
		<polygon points="712.06,309.83 721.93,309.83 721.93,308.11 712.06,308.11 712.06,301.32 723.13,301.32 723.13,299.58 
			710.04,299.58 710.04,318.67 723.54,318.67 723.54,316.92 712.06,316.92 		"/>
		<path d="M737.09,304.6c0-1.91,1.55-3.46,5.04-3.46c1.69,0,3.6,0.52,5.24,1.58l0.68-1.61c-1.53-1.06-3.76-1.69-5.92-1.69
			c-4.85,0-7.04,2.43-7.04,5.24c0,7.06,11.75,3.84,11.75,9.08c0,1.88-1.55,3.38-5.13,3.38c-2.51,0-4.94-0.98-6.3-2.32l-0.79,1.55
			c1.42,1.47,4.23,2.48,7.09,2.48c4.88,0,7.12-2.4,7.12-5.21C748.84,306.67,737.09,309.83,737.09,304.6z"/>
		<path d="M768.56,299.58h-7.14v19.09h2.02v-6.03h5.13c4.85,0,7.8-2.45,7.8-6.52C776.35,302.03,773.41,299.58,768.56,299.58z
			 M768.5,310.87h-5.07v-9.54h5.07c3.82,0,5.83,1.75,5.83,4.8C774.34,309.12,772.32,310.87,768.5,310.87z"/>
		<polygon points="790.91,309.83 800.78,309.83 800.78,308.11 790.91,308.11 790.91,301.32 801.98,301.32 801.98,299.58 
			788.9,299.58 788.9,318.67 802.39,318.67 802.39,316.92 790.91,316.92 		"/>
		<path d="M823.58,301.21c2.18,0,4.09,0.68,5.64,2.26l1.28-1.28c-1.69-1.85-4.2-2.78-6.98-2.78c-5.75,0-10.01,4.12-10.01,9.71
			s4.25,9.71,9.98,9.71c2.81,0,5.32-0.96,7.01-2.81l-1.28-1.28c-1.55,1.61-3.46,2.29-5.64,2.29c-4.61,0-8.07-3.38-8.07-7.91
			S818.97,301.21,823.58,301.21z"/>
		<rect x="842.99" y="299.58" width="2.02" height="19.09"/>
		<path d="M865.08,299.58l-8.73,19.09h2.1l2.29-5.1h10.63l2.29,5.1h2.13l-8.73-19.09H865.08z M861.48,311.93l4.58-10.25l4.58,10.25
			H861.48z"/>
		<polygon points="889.15,299.58 887.14,299.58 887.14,318.67 899.84,318.67 899.84,316.92 889.15,316.92 		"/>
		<rect x="911.38" y="299.58" width="2.02" height="19.09"/>
		<path d="M928.42,304.6c0-1.91,1.55-3.46,5.04-3.46c1.69,0,3.6,0.52,5.24,1.58l0.68-1.61c-1.53-1.06-3.76-1.69-5.92-1.69
			c-4.85,0-7.04,2.43-7.04,5.24c0,7.06,11.75,3.84,11.75,9.08c0,1.88-1.55,3.38-5.13,3.38c-2.51,0-4.94-0.98-6.3-2.32l-0.79,1.55
			c1.42,1.47,4.23,2.48,7.09,2.48c4.88,0,7.12-2.4,7.12-5.21C940.17,306.67,928.42,309.83,928.42,304.6z"/>
		<polygon points="949.47,301.32 956.17,301.32 956.17,318.67 958.19,318.67 958.19,301.32 964.9,301.32 964.9,299.58 
			949.47,299.58 		"/>
		<path d="M981.01,299.58l-8.73,19.09h2.1l2.29-5.1h10.63l2.29,5.1h2.13L983,299.58H981.01z M977.41,311.93l4.58-10.25l4.58,10.25
			H977.41z"/>
	</g>
</g>
</svg>
