<svg data-v-423bf9ae="" xmlns="http://www.w3.org/2000/svg" viewBox="0 0 565.3823643183629 186" class="iconAboveSlogan"><!----><!----><!----><g data-v-423bf9ae="" id="bfddf943-2199-46d0-aec0-3665c3abce0f" fill="black" transform="matrix(5.808325309113267,0,0,5.808325309113267,-0.0000047910173748277884,85.74927151998887)"><path d="M3.84 13.29L1.32 7.04L1.32 13.29L0 13.29L0 2.97L1.11 2.97L3.63 9.21L3.63 2.97L4.96 2.97L4.96 13.29ZM5.95 5.91C5.95 5.00 6.15 4.28 6.54 3.78C6.69 3.60 6.90 3.40 7.21 3.23C7.52 3.08 7.90 2.97 8.40 2.97C9.41 2.97 9.97 3.40 10.26 3.78C10.65 4.28 10.85 5.00 10.85 5.91L10.85 10.35C10.85 11.26 10.65 11.97 10.26 12.47C9.97 12.85 9.41 13.29 8.40 13.29C7.41 13.29 6.83 12.85 6.54 12.47C6.15 11.97 5.95 11.26 5.95 10.35ZM7.27 10.35C7.27 11.17 7.45 11.56 7.69 11.76C7.92 11.96 8.19 11.97 8.40 11.97C8.58 11.97 8.88 11.96 9.11 11.76C9.35 11.56 9.53 11.17 9.53 10.35L9.53 5.91C9.53 5.11 9.35 4.69 9.11 4.49C8.88 4.30 8.58 4.30 8.40 4.30C8.19 4.30 7.92 4.30 7.69 4.49C7.45 4.69 7.27 5.11 7.27 5.91ZM16.41 13.29L15.08 13.29L15.08 10.23C15.08 9.32 14.64 8.88 13.76 8.88L12.94 8.88L12.94 13.29L11.62 13.29L11.62 2.97L13.76 2.97C15.54 2.97 16.38 3.99 16.38 5.91C16.38 6.86 16.17 7.59 15.76 8.08C15.75 8.09 15.72 8.12 15.71 8.15C15.68 8.18 15.65 8.20 15.62 8.22C16.13 8.71 16.41 9.38 16.41 10.23ZM12.94 7.55L13.76 7.55C14.11 7.55 14.36 7.50 14.50 7.42C14.63 7.34 14.71 7.27 14.76 7.22C14.97 6.96 15.06 6.52 15.06 5.91C15.06 5.22 14.95 4.82 14.74 4.58C14.52 4.35 14.20 4.30 13.76 4.30L12.94 4.30ZM20.16 7.80L23.20 13.29L21.69 13.29L19.33 9.06L18.79 9.91L18.79 13.29L17.47 13.29L17.47 9.55L17.46 9.55L17.47 9.52L17.47 2.97L18.79 2.97L18.79 7.48L21.71 2.97L23.30 2.97ZM23.74 5.91C23.74 5.00 23.94 4.28 24.33 3.78C24.49 3.60 24.70 3.40 25.00 3.23C25.31 3.08 25.69 2.97 26.19 2.97C27.20 2.97 27.76 3.40 28.06 3.78C28.45 4.28 28.64 5.00 28.64 5.91L28.64 10.35C28.64 11.26 28.45 11.97 28.06 12.47C27.76 12.85 27.20 13.29 26.19 13.29C25.20 13.29 24.63 12.85 24.33 12.47C23.94 11.97 23.74 11.26 23.74 10.35ZM25.06 10.35C25.06 11.17 25.24 11.56 25.48 11.76C25.72 11.96 25.98 11.97 26.19 11.97C26.38 11.97 26.67 11.96 26.91 11.76C27.15 11.56 27.33 11.17 27.33 10.35L27.33 5.91C27.33 5.11 27.15 4.69 26.91 4.49C26.67 4.30 26.38 4.30 26.19 4.30C25.98 4.30 25.72 4.30 25.48 4.49C25.24 4.69 25.06 5.11 25.06 5.91ZM33.25 13.29L30.73 7.04L30.73 13.29L29.41 13.29L29.41 2.97L30.52 2.97L33.04 9.21L33.04 2.97L34.37 2.97L34.37 13.29ZM39.68 2.97L45.51 2.97L45.51 4.30L43.26 4.30L43.26 13.29L41.93 13.29L41.93 4.30L39.68 4.30ZM50.40 2.98L50.40 4.30L47.45 4.30L47.45 7.48L50.40 7.48L50.40 8.79L47.45 8.79L47.45 11.98L50.40 11.98L50.40 13.30L46.13 13.30L46.13 2.98ZM51.34 5.92C51.34 5.01 51.53 4.30 51.93 3.79C52.22 3.42 52.78 2.98 53.79 2.98C54.80 2.98 55.34 3.42 55.64 3.79C56.04 4.31 56.24 5.01 56.24 5.92L56.24 6.58L54.91 6.58L54.91 5.92C54.91 5.12 54.73 4.69 54.50 4.49C54.26 4.30 53.97 4.30 53.79 4.30C53.58 4.30 53.31 4.30 53.07 4.49C52.84 4.69 52.65 5.12 52.65 5.92L52.65 10.35C52.65 10.95 52.77 11.40 52.98 11.66C53.02 11.73 53.10 11.80 53.23 11.87C53.35 11.94 53.54 11.98 53.79 11.98C54.29 11.98 54.49 11.79 54.60 11.66C54.81 11.38 54.91 10.95 54.91 10.35L54.91 9.69L56.24 9.69L56.24 10.35C56.24 11.26 56.04 11.96 55.64 12.47C55.34 12.85 54.80 13.30 53.79 13.30C53.28 13.30 52.91 13.19 52.60 13.02C52.29 12.87 52.08 12.66 51.93 12.47C51.53 11.97 51.34 11.26 51.34 10.35ZM60.07 7.48L60.07 2.98L61.40 2.98L61.40 13.30L60.07 13.30L60.07 8.81L58.09 8.81L58.09 13.30L56.77 13.30L56.77 2.98L58.09 2.98L58.09 7.48ZM66.33 13.29L63.81 7.04L63.81 13.29L62.50 13.29L62.50 2.97L63.60 2.97L66.12 9.21L66.12 2.97L67.45 2.97L67.45 13.29ZM68.45 5.91C68.45 5.00 68.64 4.28 69.03 3.78C69.19 3.60 69.40 3.40 69.71 3.23C70.01 3.08 70.39 2.97 70.90 2.97C71.90 2.97 72.46 3.40 72.76 3.78C73.15 4.28 73.35 5.00 73.35 5.91L73.35 10.35C73.35 11.26 73.15 11.97 72.76 12.47C72.46 12.85 71.90 13.29 70.90 13.29C69.90 13.29 69.33 12.85 69.03 12.47C68.64 11.97 68.45 11.26 68.45 10.35ZM69.76 10.35C69.76 11.17 69.94 11.56 70.18 11.76C70.42 11.96 70.69 11.97 70.90 11.97C71.08 11.97 71.37 11.96 71.61 11.76C71.85 11.56 72.03 11.17 72.03 10.35L72.03 5.91C72.03 5.11 71.85 4.69 71.61 4.49C71.37 4.30 71.08 4.30 70.90 4.30C70.69 4.30 70.42 4.30 70.18 4.49C69.94 4.69 69.76 5.11 69.76 5.91ZM78.61 13.29L74.12 13.29L74.12 2.97L75.43 2.97L75.43 11.97L78.61 11.97ZM79.10 5.91C79.10 5.00 79.30 4.28 79.69 3.78C79.84 3.60 80.05 3.40 80.36 3.23C80.67 3.08 81.05 2.97 81.55 2.97C82.56 2.97 83.12 3.40 83.41 3.78C83.80 4.28 84 5.00 84 5.91L84 10.35C84 11.26 83.80 11.97 83.41 12.47C83.12 12.85 82.56 13.29 81.55 13.29C80.56 13.29 79.98 12.85 79.69 12.47C79.30 11.97 79.10 11.26 79.10 10.35ZM80.42 10.35C80.42 11.17 80.60 11.56 80.84 11.76C81.07 11.96 81.34 11.97 81.55 11.97C81.73 11.97 82.03 11.96 82.26 11.76C82.50 11.56 82.68 11.17 82.68 10.35L82.68 5.91C82.68 5.11 82.50 4.69 82.26 4.49C82.03 4.30 81.73 4.30 81.55 4.30C81.34 4.30 81.07 4.30 80.84 4.49C80.60 4.69 80.42 5.11 80.42 5.91ZM84.77 5.91C84.77 4.06 85.60 2.98 87.22 2.98C88.86 2.98 89.68 4.06 89.68 5.91L89.68 6.57L88.35 6.57L88.35 5.91C88.35 5.17 88.21 4.76 88.00 4.54C87.78 4.33 87.50 4.30 87.22 4.30C86.94 4.30 86.66 4.33 86.45 4.54C86.23 4.76 86.09 5.17 86.09 5.91L86.09 10.36C86.09 11.19 86.27 11.58 86.51 11.77C86.74 11.97 87.01 11.98 87.22 11.98C87.43 11.98 87.71 11.97 87.95 11.77C88.17 11.58 88.35 11.19 88.35 10.36L88.35 9.58L86.76 9.58L86.76 8.25L89.68 8.25L89.68 10.36C89.68 11.28 89.49 12.00 89.08 12.49C88.79 12.87 88.23 13.30 87.22 13.30C86.23 13.30 85.67 12.87 85.37 12.49C84.97 12.00 84.77 11.28 84.77 10.36ZM93.73 6.76L95.83 2.98L97.34 2.98L94.39 8.30L94.39 13.30L93.07 13.30L93.07 8.30L90.13 2.98L91.64 2.98Z"></path></g><!----><g data-v-423bf9ae="" id="fccbbce9-2cb9-408c-9792-d2dddc08d416" transform="matrix(2.8125,0,0,2.8125,237.82998657226562,0)" stroke="none" fill="black"><path d="M2.83 18.247l26.34-9.124L2.83 0zM29.17 32V13.753L2.83 22.877z"></path></g><!----><g data-v-423bf9ae="" id="73a5693b-a688-4647-98bc-7cf8c179dbaa" fill="black" transform="matrix(1.0094912166686418,0,0,1.0094912166686418,70.9773423329433,200.3843395963915)"><path d="M0.45 12.46C0.45 12.63 0.46 12.70 0.64 12.70C0.80 12.70 2.03 12.64 2.42 12.64C3.28 12.64 4.16 12.70 5.01 12.70C7.63 12.70 10.02 11.07 10.02 7.91C10.02 4.89 7.69 3.07 4.65 3.07C4.09 3.07 2.83 3.23 1.79 3.23C1.32 3.23 0.85 3.22 0.80 3.22C0.62 3.22 0.60 3.32 0.60 3.49C0.60 3.68 0.67 3.70 0.80 3.70L1.76 3.67C1.79 3.67 1.79 4.20 1.79 4.72C1.79 5.91 1.71 12.21 1.62 12.21L0.73 12.21C0.55 12.21 0.45 12.22 0.45 12.46ZM3.02 11.40C3.02 9.46 3.02 7.52 3.04 5.60C3.04 5.03 3.08 3.61 3.12 3.60C3.42 3.53 4.00 3.51 4.35 3.51C6.92 3.51 8.53 5.75 8.53 7.73C8.53 8.95 8.48 12.25 3.81 12.25C3.54 12.25 3.14 12.25 3.04 12.21C3.02 12.19 3.02 11.79 3.02 11.40ZM18.13 12.39C18.13 12.63 18.16 12.68 18.35 12.68C18.68 12.68 19.64 12.64 20.06 12.64C20.48 12.64 24.99 12.68 25.31 12.68C25.44 12.68 25.59 12.66 25.59 12.49C25.59 12.07 25.63 11.23 25.63 10.53C25.63 10.39 25.48 10.39 25.35 10.39C25.24 10.39 25.12 10.39 25.12 10.51C25.10 11.06 25.10 11.41 25.07 11.76C25.05 12.01 25.05 12.04 24.95 12.04C24.79 12.04 22.16 12.08 20.66 12.08C20.59 12.08 20.55 10.11 20.51 8.26C20.51 8.06 20.55 8.09 20.69 8.09L22.97 8.09C23.67 8.09 23.70 8.20 23.70 8.30L23.70 9.00C23.70 9.14 23.88 9.14 24.00 9.14C24.09 9.14 24.22 9.13 24.22 9.02C24.22 8.83 24.19 8.33 24.19 7.83C24.19 7.32 24.22 6.83 24.22 6.71C24.22 6.59 24.08 6.58 23.98 6.58C23.87 6.58 23.70 6.59 23.70 6.72L23.70 7.45C23.70 7.62 23.25 7.63 22.97 7.63L20.64 7.63C20.52 7.63 20.51 7.63 20.51 7.45C20.50 6.75 20.48 6.06 20.48 5.46C20.48 5.12 20.48 3.71 20.57 3.71C21.80 3.71 24.30 3.75 24.30 3.81C24.30 3.99 24.26 4.83 24.26 4.89C24.26 5.04 24.33 5.10 24.51 5.10C24.71 5.10 24.78 5.08 24.78 4.94C24.78 3.85 24.84 3.36 24.84 3.09C24.84 2.91 24.75 2.90 24.56 2.90C24.36 2.90 24.36 2.95 24.33 3.11C24.32 3.25 24.39 3.25 23.48 3.25C22.86 3.25 20.72 3.29 19.95 3.29C19.46 3.29 18.52 3.25 18.42 3.25C18.30 3.25 18.24 3.30 18.24 3.49C18.24 3.72 18.31 3.74 18.48 3.74L19.14 3.74C19.19 3.74 19.26 4.79 19.26 5.71C19.26 5.80 19.32 8.27 19.32 9.83L19.32 11.17C19.32 11.84 19.29 12.18 19.26 12.18L18.41 12.18C18.19 12.18 18.13 12.21 18.13 12.39ZM33.81 5.77C33.81 9.07 38.79 8.20 38.79 10.65C38.79 11.59 37.95 12.31 36.97 12.31C36.15 12.31 34.55 11.83 34.52 11.47L34.44 10.15C34.43 9.97 34.36 9.91 34.17 9.91L34.10 9.91C33.89 9.91 33.89 10.00 33.89 10.12C33.89 10.32 34.01 11.66 34.03 12.17C34.05 12.38 35.31 12.85 36.85 12.85C38.42 12.85 40.03 11.87 40.03 10.11C40.03 6.79 35.06 7.87 35.06 5.32C35.06 4.31 35.84 3.56 36.88 3.56C37.90 3.56 38.99 4.58 38.99 4.89C38.99 5.01 38.95 5.73 38.95 5.78C38.95 5.92 38.99 5.99 39.26 5.99C39.49 5.99 39.51 5.94 39.51 5.75C39.51 5.04 39.59 3.68 39.59 3.53C39.59 3.30 39.55 3.29 39.28 3.29C39.06 3.29 39.05 3.32 39.03 3.53C39.03 3.61 39.02 3.78 38.98 3.78C38.92 3.78 38.84 3.74 38.77 3.68C37.97 3.14 37.35 3.08 36.85 3.08C35.32 3.08 33.81 4.17 33.81 5.77ZM47.99 12.39C47.99 12.63 48.02 12.68 48.22 12.68C48.54 12.68 49.50 12.64 49.92 12.64C50.34 12.64 54.85 12.68 55.17 12.68C55.30 12.68 55.45 12.66 55.45 12.49C55.45 12.07 55.50 11.23 55.50 10.53C55.50 10.39 55.34 10.39 55.22 10.39C55.10 10.39 54.98 10.39 54.98 10.51C54.96 11.06 54.96 11.41 54.94 11.76C54.91 12.01 54.91 12.04 54.81 12.04C54.66 12.04 52.02 12.08 50.53 12.08C50.46 12.08 50.41 10.11 50.37 8.26C50.37 8.06 50.41 8.09 50.55 8.09L52.84 8.09C53.54 8.09 53.56 8.20 53.56 8.30L53.56 9.00C53.56 9.14 53.75 9.14 53.86 9.14C53.96 9.14 54.08 9.13 54.08 9.02C54.08 8.83 54.05 8.33 54.05 7.83C54.05 7.32 54.08 6.83 54.08 6.71C54.08 6.59 53.94 6.58 53.84 6.58C53.73 6.58 53.56 6.59 53.56 6.72L53.56 7.45C53.56 7.62 53.12 7.63 52.84 7.63L50.50 7.63C50.39 7.63 50.37 7.63 50.37 7.45C50.36 6.75 50.34 6.06 50.34 5.46C50.34 5.12 50.34 3.71 50.43 3.71C51.66 3.71 54.17 3.75 54.17 3.81C54.17 3.99 54.12 4.83 54.12 4.89C54.12 5.04 54.19 5.10 54.38 5.10C54.57 5.10 54.64 5.08 54.64 4.94C54.64 3.85 54.70 3.36 54.70 3.09C54.70 2.91 54.61 2.90 54.42 2.90C54.22 2.90 54.22 2.95 54.19 3.11C54.18 3.25 54.25 3.25 53.34 3.25C52.72 3.25 50.58 3.29 49.81 3.29C49.32 3.29 48.38 3.25 48.29 3.25C48.16 3.25 48.10 3.30 48.10 3.49C48.10 3.72 48.17 3.74 48.34 3.74L49.00 3.74C49.06 3.74 49.13 4.79 49.13 5.71C49.13 5.80 49.18 8.27 49.18 9.83L49.18 11.17C49.18 11.84 49.15 12.18 49.13 12.18L48.27 12.18C48.05 12.18 47.99 12.21 47.99 12.39ZM63.46 12.39C63.46 12.63 63.48 12.68 63.67 12.68C63.85 12.68 64.23 12.64 64.85 12.64C65.48 12.64 66.04 12.68 66.36 12.68C66.53 12.68 66.53 12.61 66.53 12.40C66.53 12.24 66.53 12.18 66.36 12.18L65.16 12.18C65.11 12.18 65.10 11.54 65.10 10.79C65.10 9.46 65.11 7.48 65.11 5.99C65.11 5.25 65.11 4.84 65.13 4.28C65.13 4.02 65.20 4.14 65.32 4.28L72.21 12.66C72.30 12.75 72.38 12.89 72.49 12.89C72.60 12.89 72.67 12.77 72.67 12.54C72.67 12.39 72.84 6.65 72.86 4.48C72.86 4.06 72.88 3.70 72.91 3.70L73.54 3.70C73.77 3.70 73.82 3.68 73.82 3.49C73.82 3.25 73.82 3.19 73.63 3.19C73.43 3.19 73.00 3.23 72.44 3.23C71.82 3.23 71.02 3.19 70.92 3.19C70.76 3.19 70.76 3.26 70.76 3.47C70.76 3.64 70.76 3.70 70.92 3.70L72.23 3.70C72.24 3.70 72.24 4.33 72.24 4.44C72.24 5.85 72.27 8.33 72.27 9.70L72.27 10.29C72.27 10.57 72.25 10.65 72.03 10.37L66.35 3.39C66.23 3.25 66.21 3.19 66.04 3.19C65.95 3.19 65.58 3.23 65.27 3.23C64.97 3.23 63.90 3.19 63.70 3.19C63.53 3.19 63.50 3.26 63.50 3.47C63.50 3.64 63.53 3.70 63.70 3.70L64.61 3.70C64.61 4.17 64.57 8.53 64.50 10.79C64.47 11.69 64.48 12.18 64.37 12.18L63.73 12.18C63.50 12.18 63.46 12.19 63.46 12.39ZM81.44 3.51C81.44 3.75 81.54 3.77 81.70 3.77L82.14 3.77C82.22 3.77 85.01 10.99 85.05 11.07C85.54 12.18 85.64 12.99 85.85 12.99C86.11 12.99 86.17 12.67 86.45 12.26C86.60 12.04 86.69 12.01 86.84 11.66L90.08 4.06C90.19 3.81 90.17 3.77 90.54 3.77C90.76 3.77 90.83 3.75 90.83 3.56C90.83 3.32 90.79 3.26 90.59 3.26C90.45 3.26 89.92 3.30 89.50 3.30C89.08 3.30 88.26 3.26 88.03 3.26C87.84 3.26 87.78 3.29 87.78 3.51C87.78 3.75 87.91 3.77 88.07 3.77L89.07 3.77C89.14 3.77 89.15 3.81 89.15 3.95C89.15 4.63 87.47 8.72 86.74 10.63C86.60 10.99 86.52 11.17 86.48 11.17C86.44 11.17 86.34 10.98 86.20 10.60C85.62 9.10 84.49 6.01 83.97 4.49C83.89 4.27 83.80 3.93 83.80 3.79L83.80 3.77L84.78 3.77C85.01 3.77 85.08 3.75 85.08 3.56C85.08 3.32 85.04 3.26 84.84 3.26C84.52 3.26 83.44 3.30 83.02 3.30C82.60 3.30 81.89 3.26 81.70 3.26C81.52 3.26 81.44 3.28 81.44 3.51ZM97.96 8.15C97.96 11.17 100.30 12.80 102.55 12.80C105.34 12.80 107.31 10.89 107.31 8.06C107.31 5.33 105.56 3.11 102.76 3.11C100.16 3.11 97.96 5.10 97.96 8.15ZM99.36 7.77C99.36 5.64 100.65 3.58 102.62 3.58C104.86 3.58 105.94 5.81 105.94 7.94C105.94 10.08 104.83 12.32 102.56 12.32C100.58 12.32 99.36 10.28 99.36 7.77ZM115.42 12.39C115.42 12.63 115.44 12.68 115.64 12.68C115.96 12.68 116.93 12.64 117.35 12.64C117.77 12.64 122.12 12.68 122.44 12.68C122.71 12.68 122.78 12.66 122.79 12.49C122.85 12.08 123.09 10.72 123.09 10.60C123.09 10.47 122.93 10.44 122.77 10.43C122.67 10.42 122.58 10.46 122.57 10.56L122.40 11.76C122.36 12.05 122.35 12.03 122.12 12.04C121.97 12.05 119.46 12.12 118.03 12.12C117.99 12.12 117.95 11.38 117.95 10.54L117.95 6.66C117.95 5.40 117.96 3.70 118.06 3.70L119.04 3.70C119.28 3.70 119.31 3.63 119.31 3.44C119.31 3.23 119.29 3.19 119.06 3.19C118.73 3.19 117.80 3.23 117.38 3.23C116.96 3.23 116.02 3.19 115.79 3.19C115.57 3.19 115.51 3.22 115.51 3.44C115.51 3.65 115.56 3.70 115.75 3.70L116.58 3.70C116.62 3.70 116.65 4.23 116.65 4.90L116.65 8.13C116.65 10.07 116.62 12.18 116.54 12.18L115.70 12.18C115.47 12.18 115.42 12.21 115.42 12.39ZM129.30 3.51C129.30 3.75 129.40 3.77 129.57 3.77L130.00 3.77C130.09 3.77 132.87 10.99 132.92 11.07C133.41 12.18 133.50 12.99 133.71 12.99C133.98 12.99 134.04 12.67 134.32 12.26C134.47 12.04 134.55 12.01 134.71 11.66L137.94 4.06C138.05 3.81 138.04 3.77 138.40 3.77C138.63 3.77 138.70 3.75 138.70 3.56C138.70 3.32 138.66 3.26 138.46 3.26C138.32 3.26 137.79 3.30 137.37 3.30C136.95 3.30 136.12 3.26 135.90 3.26C135.70 3.26 135.65 3.29 135.65 3.51C135.65 3.75 135.77 3.77 135.94 3.77L136.93 3.77C137.00 3.77 137.02 3.81 137.02 3.95C137.02 4.63 135.34 8.72 134.61 10.63C134.47 10.99 134.39 11.17 134.34 11.17C134.30 11.17 134.20 10.98 134.06 10.60C133.49 9.10 132.36 6.01 131.84 4.49C131.75 4.27 131.67 3.93 131.67 3.79L131.67 3.77L132.65 3.77C132.87 3.77 132.94 3.75 132.94 3.56C132.94 3.32 132.90 3.26 132.71 3.26C132.38 3.26 131.31 3.30 130.89 3.30C130.47 3.30 129.75 3.26 129.57 3.26C129.39 3.26 129.30 3.28 129.30 3.51ZM146.17 12.39C146.17 12.63 146.22 12.68 146.41 12.68C146.73 12.68 147.49 12.64 148.20 12.64C148.86 12.64 149.66 12.68 149.88 12.68C150.05 12.68 150.08 12.61 150.08 12.40C150.08 12.24 150.05 12.18 149.88 12.18L148.92 12.18C148.82 12.18 148.79 9.55 148.79 7.76L148.79 5.87C148.79 5.14 148.82 3.70 148.92 3.70L149.83 3.70C150.05 3.70 150.08 3.68 150.08 3.49C150.08 3.25 150.05 3.19 149.88 3.19C149.56 3.19 148.89 3.23 148.23 3.23C147.42 3.23 146.71 3.19 146.48 3.19C146.30 3.19 146.23 3.21 146.23 3.44C146.23 3.68 146.31 3.70 146.48 3.70L147.41 3.70C147.45 3.70 147.52 4.79 147.52 5.71L147.52 7.08C147.52 8.92 147.50 12.18 147.39 12.18L146.47 12.18C146.24 12.18 146.17 12.19 146.17 12.39ZM157.91 12.39C157.91 12.63 157.93 12.68 158.13 12.68C158.37 12.68 158.87 12.64 159.29 12.64C159.71 12.64 160.20 12.68 160.52 12.68C160.69 12.68 160.72 12.61 160.72 12.40C160.72 12.24 160.69 12.18 160.52 12.18L159.56 12.18C159.50 12.18 159.49 11.54 159.49 10.79C159.49 8.96 159.53 6.13 159.60 4.28C159.63 3.88 159.66 3.91 159.80 4.27L163.06 12.32C163.16 12.54 163.23 12.74 163.34 12.74C163.44 12.74 163.51 12.63 163.59 12.45C163.93 11.79 164.11 11.75 164.37 11.09L166.96 4.47C167.09 4.16 167.13 4.02 167.15 4.47C167.17 5.66 167.22 8.47 167.22 9.74C167.22 10.99 167.17 12.18 167.12 12.18L166.49 12.18C166.26 12.18 166.19 12.19 166.19 12.39C166.19 12.63 166.22 12.68 166.42 12.68C166.61 12.68 167.31 12.64 167.92 12.64C168.34 12.64 169.09 12.68 169.41 12.68C169.58 12.68 169.61 12.61 169.61 12.40C169.61 12.22 169.55 12.18 169.39 12.18L168.66 12.18C168.55 12.18 168.45 8.44 168.45 6.03L168.45 4.77C168.45 4.17 168.48 3.77 168.52 3.70L169.18 3.70C169.40 3.70 169.44 3.68 169.44 3.49C169.44 3.25 169.43 3.19 169.23 3.19C168.91 3.19 168.22 3.23 167.80 3.23L167.13 3.23C166.91 3.23 166.88 3.29 166.77 3.58L164.02 10.72C163.94 10.95 163.91 11.02 163.80 10.74L160.86 3.40C160.79 3.22 160.73 3.19 160.59 3.19C160.51 3.19 160.02 3.23 159.71 3.23C159.21 3.23 158.35 3.19 158.16 3.19C158.02 3.19 158.02 3.26 158.02 3.47C158.02 3.64 158.02 3.70 158.16 3.70L158.86 3.70C159.12 3.70 159.12 3.72 159.12 3.84C159.12 4.82 158.91 9.94 158.87 10.79C158.83 11.55 158.83 12.18 158.77 12.18L158.20 12.18C157.98 12.18 157.91 12.19 157.91 12.39ZM177.51 12.39C177.51 12.63 177.53 12.68 177.73 12.68C178.05 12.68 179.02 12.64 179.44 12.64C179.86 12.64 184.37 12.68 184.69 12.68C184.81 12.68 184.97 12.66 184.97 12.49C184.97 12.07 185.01 11.23 185.01 10.53C185.01 10.39 184.86 10.39 184.73 10.39C184.62 10.39 184.49 10.39 184.49 10.51C184.48 11.06 184.48 11.41 184.45 11.76C184.42 12.01 184.42 12.04 184.32 12.04C184.17 12.04 181.54 12.08 180.04 12.08C179.97 12.08 179.93 10.11 179.89 8.26C179.89 8.06 179.93 8.09 180.07 8.09L182.35 8.09C183.05 8.09 183.08 8.20 183.08 8.30L183.08 9.00C183.08 9.14 183.26 9.14 183.37 9.14C183.47 9.14 183.60 9.13 183.60 9.02C183.60 8.83 183.57 8.33 183.57 7.83C183.57 7.32 183.60 6.83 183.60 6.71C183.60 6.59 183.46 6.58 183.36 6.58C183.25 6.58 183.08 6.59 183.08 6.72L183.08 7.45C183.08 7.62 182.63 7.63 182.35 7.63L180.01 7.63C179.90 7.63 179.89 7.63 179.89 7.45C179.87 6.75 179.86 6.06 179.86 5.46C179.86 5.12 179.86 3.71 179.94 3.71C181.17 3.71 183.68 3.75 183.68 3.81C183.68 3.99 183.64 4.83 183.64 4.89C183.64 5.04 183.71 5.10 183.89 5.10C184.09 5.10 184.16 5.08 184.16 4.94C184.16 3.85 184.21 3.36 184.21 3.09C184.21 2.91 184.13 2.90 183.93 2.90C183.74 2.90 183.74 2.95 183.71 3.11C183.69 3.25 183.76 3.25 182.85 3.25C182.24 3.25 180.10 3.29 179.33 3.29C178.84 3.29 177.90 3.25 177.80 3.25C177.67 3.25 177.62 3.30 177.62 3.49C177.62 3.72 177.69 3.74 177.86 3.74L178.51 3.74C178.57 3.74 178.64 4.79 178.64 5.71C178.64 5.80 178.70 8.27 178.70 9.83L178.70 11.17C178.70 11.84 178.67 12.18 178.64 12.18L177.79 12.18C177.56 12.18 177.51 12.21 177.51 12.39ZM192.98 12.39C192.98 12.63 192.99 12.68 193.19 12.68C193.37 12.68 193.75 12.64 194.36 12.64C194.99 12.64 195.55 12.68 195.87 12.68C196.04 12.68 196.04 12.61 196.04 12.40C196.04 12.24 196.04 12.18 195.87 12.18L194.67 12.18C194.63 12.18 194.61 11.54 194.61 10.79C194.61 9.46 194.63 7.48 194.63 5.99C194.63 5.25 194.63 4.84 194.64 4.28C194.64 4.02 194.71 4.14 194.84 4.28L201.73 12.66C201.81 12.75 201.89 12.89 202.01 12.89C202.12 12.89 202.19 12.77 202.19 12.54C202.19 12.39 202.36 6.65 202.37 4.48C202.37 4.06 202.40 3.70 202.43 3.70L203.06 3.70C203.28 3.70 203.34 3.68 203.34 3.49C203.34 3.25 203.34 3.19 203.14 3.19C202.94 3.19 202.51 3.23 201.95 3.23C201.33 3.23 200.54 3.19 200.44 3.19C200.27 3.19 200.27 3.26 200.27 3.47C200.27 3.64 200.27 3.70 200.44 3.70L201.74 3.70C201.75 3.70 201.75 4.33 201.75 4.44C201.75 5.85 201.78 8.33 201.78 9.70L201.78 10.29C201.78 10.57 201.77 10.65 201.54 10.37L195.86 3.39C195.75 3.25 195.72 3.19 195.55 3.19C195.47 3.19 195.09 3.23 194.78 3.23C194.49 3.23 193.41 3.19 193.21 3.19C193.05 3.19 193.02 3.26 193.02 3.47C193.02 3.64 193.05 3.70 193.21 3.70L194.12 3.70C194.12 4.17 194.08 8.53 194.01 10.79C193.98 11.69 194.00 12.18 193.89 12.18L193.24 12.18C193.02 12.18 192.98 12.19 192.98 12.39ZM211.11 5.01C211.11 5.17 211.29 5.17 211.41 5.17C211.57 5.17 211.61 5.15 211.62 4.97L211.74 3.89C211.75 3.81 212.30 3.75 213.05 3.75L215.04 3.75C215.10 3.75 215.12 4.35 215.12 4.97C215.12 6.43 215.07 12.18 214.94 12.18L214.07 12.18C213.85 12.18 213.81 12.19 213.81 12.39C213.81 12.63 213.82 12.68 214.02 12.68C214.34 12.68 215.32 12.64 215.74 12.64C216.16 12.64 217.10 12.68 217.42 12.68C217.59 12.68 217.62 12.61 217.62 12.40C217.62 12.24 217.59 12.18 217.42 12.18L216.43 12.18C216.40 12.18 216.40 11.76 216.40 11.31C216.40 9.56 216.48 5.96 216.48 5.92C216.50 5.18 216.50 3.75 216.59 3.75L218.20 3.75C218.92 3.75 219.74 3.78 219.74 3.85C219.74 3.99 219.70 4.90 219.70 4.97C219.70 5.12 219.77 5.17 219.95 5.17C220.15 5.17 220.22 5.17 220.22 5.03C220.22 3.93 220.28 3.40 220.28 3.14C220.28 2.94 220.19 2.94 220.00 2.94C219.84 2.94 219.79 2.98 219.77 3.16C219.77 3.23 219.13 3.28 218.29 3.28L213.29 3.28C212.63 3.28 211.82 3.28 211.82 3.21L211.82 3.07C211.82 2.94 211.69 2.94 211.60 2.94C211.37 2.94 211.34 3.00 211.33 3.19C211.27 3.89 211.11 4.97 211.11 5.01ZM227.54 8.15C227.54 11.17 229.88 12.80 232.13 12.80C234.92 12.80 236.89 10.89 236.89 8.06C236.89 5.33 235.14 3.11 232.34 3.11C229.74 3.11 227.54 5.10 227.54 8.15ZM228.94 7.77C228.94 5.64 230.23 3.58 232.20 3.58C234.44 3.58 235.52 5.81 235.52 7.94C235.52 10.08 234.42 12.32 232.15 12.32C230.16 12.32 228.94 10.28 228.94 7.77ZM254.73 12.46C254.73 12.63 254.74 12.70 254.93 12.70C255.08 12.70 256.31 12.64 256.70 12.64C257.56 12.64 258.44 12.70 259.29 12.70C261.91 12.70 264.31 11.07 264.31 7.91C264.31 4.89 261.97 3.07 258.93 3.07C258.37 3.07 257.11 3.23 256.07 3.23C255.60 3.23 255.14 3.22 255.08 3.22C254.90 3.22 254.88 3.32 254.88 3.49C254.88 3.68 254.95 3.70 255.08 3.70L256.05 3.67C256.07 3.67 256.07 4.20 256.07 4.72C256.07 5.91 255.99 12.21 255.91 12.21L255.01 12.21C254.83 12.21 254.73 12.22 254.73 12.46ZM257.31 11.40C257.31 9.46 257.31 7.52 257.32 5.60C257.32 5.03 257.36 3.61 257.40 3.60C257.70 3.53 258.29 3.51 258.64 3.51C261.20 3.51 262.81 5.75 262.81 7.73C262.81 8.95 262.77 12.25 258.09 12.25C257.82 12.25 257.42 12.25 257.32 12.21C257.31 12.19 257.31 11.79 257.31 11.40ZM272.41 12.39C272.41 12.63 272.44 12.68 272.64 12.68C272.96 12.68 273.92 12.64 274.34 12.64C274.76 12.64 279.27 12.68 279.59 12.68C279.72 12.68 279.87 12.66 279.87 12.49C279.87 12.07 279.92 11.23 279.92 10.53C279.92 10.39 279.76 10.39 279.64 10.39C279.52 10.39 279.40 10.39 279.40 10.51C279.38 11.06 279.38 11.41 279.36 11.76C279.33 12.01 279.33 12.04 279.23 12.04C279.08 12.04 276.44 12.08 274.95 12.08C274.88 12.08 274.83 10.11 274.79 8.26C274.79 8.06 274.83 8.09 274.97 8.09L277.26 8.09C277.96 8.09 277.98 8.20 277.98 8.30L277.98 9.00C277.98 9.14 278.17 9.14 278.28 9.14C278.38 9.14 278.50 9.13 278.50 9.02C278.50 8.83 278.47 8.33 278.47 7.83C278.47 7.32 278.50 6.83 278.50 6.71C278.50 6.59 278.36 6.58 278.26 6.58C278.15 6.58 277.98 6.59 277.98 6.72L277.98 7.45C277.98 7.62 277.54 7.63 277.26 7.63L274.92 7.63C274.81 7.63 274.79 7.63 274.79 7.45C274.78 6.75 274.76 6.06 274.76 5.46C274.76 5.12 274.76 3.71 274.85 3.71C276.08 3.71 278.59 3.75 278.59 3.81C278.59 3.99 278.54 4.83 278.54 4.89C278.54 5.04 278.61 5.10 278.80 5.10C278.99 5.10 279.06 5.08 279.06 4.94C279.06 3.85 279.12 3.36 279.12 3.09C279.12 2.91 279.03 2.90 278.84 2.90C278.64 2.90 278.64 2.95 278.61 3.11C278.60 3.25 278.67 3.25 277.76 3.25C277.14 3.25 275.00 3.29 274.23 3.29C273.74 3.29 272.80 3.25 272.71 3.25C272.58 3.25 272.52 3.30 272.52 3.49C272.52 3.72 272.59 3.74 272.76 3.74L273.42 3.74C273.48 3.74 273.55 4.79 273.55 5.71C273.55 5.80 273.60 8.27 273.60 9.83L273.60 11.17C273.60 11.84 273.57 12.18 273.55 12.18L272.69 12.18C272.47 12.18 272.41 12.21 272.41 12.39ZM297.89 5.77C297.89 9.07 302.88 8.20 302.88 10.65C302.88 11.59 302.04 12.31 301.06 12.31C300.23 12.31 298.63 11.83 298.61 11.47L298.52 10.15C298.51 9.97 298.44 9.91 298.26 9.91L298.19 9.91C297.98 9.91 297.98 10.00 297.98 10.12C297.98 10.32 298.09 11.66 298.12 12.17C298.13 12.38 299.39 12.85 300.93 12.85C302.50 12.85 304.11 11.87 304.11 10.11C304.11 6.79 299.14 7.87 299.14 5.32C299.14 4.31 299.92 3.56 300.96 3.56C301.98 3.56 303.07 4.58 303.07 4.89C303.07 5.01 303.03 5.73 303.03 5.78C303.03 5.92 303.07 5.99 303.34 5.99C303.58 5.99 303.59 5.94 303.59 5.75C303.59 5.04 303.67 3.68 303.67 3.53C303.67 3.30 303.63 3.29 303.37 3.29C303.14 3.29 303.13 3.32 303.11 3.53C303.11 3.61 303.10 3.78 303.06 3.78C303.00 3.78 302.92 3.74 302.85 3.68C302.05 3.14 301.43 3.08 300.93 3.08C299.40 3.08 297.89 4.17 297.89 5.77ZM312.00 8.15C312.00 11.17 314.34 12.80 316.60 12.80C319.38 12.80 321.36 10.89 321.36 8.06C321.36 5.33 319.61 3.11 316.81 3.11C314.20 3.11 312.00 5.10 312.00 8.15ZM313.40 7.77C313.40 5.64 314.69 3.58 316.67 3.58C318.91 3.58 319.98 5.81 319.98 7.94C319.98 10.08 318.88 12.32 316.61 12.32C314.62 12.32 313.40 10.28 313.40 7.77ZM329.46 3.49C329.46 3.72 329.57 3.74 329.74 3.74L330.36 3.74C330.41 3.74 330.48 4.79 330.48 5.71C330.48 5.80 330.54 8.27 330.54 9.83L330.54 11.17C330.54 11.84 330.53 12.18 330.47 12.18L329.88 12.18C329.66 12.18 329.59 12.19 329.59 12.39C329.59 12.63 329.60 12.68 329.80 12.68C330.01 12.68 330.85 12.64 331.27 12.64C331.69 12.64 332.63 12.68 332.95 12.68C333.12 12.68 333.14 12.61 333.14 12.40C333.14 12.24 333.12 12.18 332.95 12.18L331.81 12.18C331.76 12.18 331.77 10.16 331.73 8.33C331.73 8.08 331.72 8.09 331.91 8.09L334.33 8.09C335.03 8.09 335.06 8.19 335.06 8.30L335.06 9.16C335.06 9.28 335.24 9.28 335.36 9.28C335.45 9.28 335.58 9.28 335.58 9.17C335.58 8.99 335.55 8.33 335.55 7.83C335.55 7.32 335.58 6.82 335.58 6.69C335.58 6.58 335.47 6.58 335.34 6.58C335.17 6.58 335.06 6.58 335.06 6.71L335.06 7.45C335.06 7.62 334.61 7.63 334.33 7.63L331.91 7.63C331.70 7.63 331.73 7.66 331.73 7.45C331.72 7.13 331.70 6.15 331.70 5.26C331.70 4.52 331.72 3.71 331.79 3.71C333.19 3.71 335.37 3.75 335.66 3.79C335.66 3.96 335.62 4.82 335.62 4.89C335.62 5.04 335.69 5.10 335.87 5.10C336.07 5.10 336.14 5.08 336.14 4.94C336.14 3.85 336.20 3.36 336.20 3.09C336.20 2.93 336.11 2.90 335.92 2.90C335.79 2.90 335.72 2.90 335.69 3.11C335.68 3.25 335.75 3.25 334.80 3.25C334.19 3.25 331.91 3.29 331.17 3.29C330.68 3.29 329.74 3.25 329.64 3.25C329.52 3.25 329.46 3.30 329.46 3.49ZM343.90 5.01C343.90 5.17 344.08 5.17 344.20 5.17C344.36 5.17 344.40 5.15 344.41 4.97L344.53 3.89C344.54 3.81 345.09 3.75 345.84 3.75L347.83 3.75C347.89 3.75 347.91 4.35 347.91 4.97C347.91 6.43 347.86 12.18 347.73 12.18L346.86 12.18C346.64 12.18 346.60 12.19 346.60 12.39C346.60 12.63 346.61 12.68 346.81 12.68C347.13 12.68 348.11 12.64 348.53 12.64C348.95 12.64 349.89 12.68 350.21 12.68C350.38 12.68 350.41 12.61 350.41 12.40C350.41 12.24 350.38 12.18 350.21 12.18L349.22 12.18C349.19 12.18 349.19 11.76 349.19 11.31C349.19 9.56 349.27 5.96 349.27 5.92C349.29 5.18 349.29 3.75 349.38 3.75L350.99 3.75C351.71 3.75 352.53 3.78 352.53 3.85C352.53 3.99 352.49 4.90 352.49 4.97C352.49 5.12 352.56 5.17 352.74 5.17C352.94 5.17 353.01 5.17 353.01 5.03C353.01 3.93 353.07 3.40 353.07 3.14C353.07 2.94 352.98 2.94 352.79 2.94C352.63 2.94 352.58 2.98 352.56 3.16C352.56 3.23 351.92 3.28 351.08 3.28L346.08 3.28C345.42 3.28 344.61 3.28 344.61 3.21L344.61 3.07C344.61 2.94 344.48 2.94 344.39 2.94C344.16 2.94 344.13 3.00 344.12 3.19C344.06 3.89 343.90 4.97 343.90 5.01ZM360.40 3.51C360.40 3.75 360.51 3.77 360.68 3.77L361.19 3.77C361.27 3.77 363.41 10.99 363.44 11.07C363.79 12.14 363.90 12.99 364.21 12.99C364.43 12.99 364.53 12.67 364.81 12.26C364.97 12.05 365.06 12.01 365.20 11.66L367.19 6.45C367.26 6.29 367.29 6.20 367.32 6.20C367.35 6.20 367.37 6.29 367.42 6.45C368.02 8.51 368.69 11.03 368.70 11.07C369.05 12.14 369.17 12.99 369.47 12.99C369.70 12.99 369.80 12.67 370.08 12.26C370.23 12.05 370.33 12.01 370.47 11.66L373.56 4.06C373.66 3.81 373.66 3.77 374.02 3.77C374.26 3.77 374.32 3.71 374.32 3.53C374.32 3.32 374.28 3.26 374.08 3.26C373.94 3.26 373.63 3.30 373.13 3.30C372.39 3.30 371.88 3.26 371.69 3.26C371.50 3.26 371.41 3.28 371.41 3.51C371.41 3.75 371.52 3.77 371.69 3.77L372.60 3.77C372.67 3.77 372.68 3.81 372.68 3.95C372.68 4.63 371.08 8.72 370.37 10.63C370.23 10.99 370.16 11.17 370.12 11.17C370.06 11.17 370.01 10.99 369.88 10.60C369.80 10.30 368.87 7.18 368.34 5.22C368.30 5.05 368.09 4.17 368.09 3.85C368.09 3.81 368.09 3.79 368.10 3.77L368.98 3.77C369.17 3.77 369.26 3.75 369.26 3.56C369.26 3.32 369.22 3.26 369.03 3.26C368.70 3.26 367.77 3.30 367.35 3.30C366.93 3.30 366.02 3.26 365.79 3.26C365.61 3.26 365.51 3.28 365.51 3.51C365.51 3.75 365.62 3.77 365.79 3.77L366.59 3.77C366.63 3.77 366.81 4.27 366.97 4.83C367.02 5.05 367.07 5.15 367.07 5.25C367.07 5.31 367.07 5.38 367.02 5.49L365.02 10.60C364.92 10.82 364.90 10.95 364.85 10.95C364.81 10.95 364.78 10.84 364.70 10.60C364.62 10.32 363.61 7.27 363.01 5.22C362.96 5.08 362.64 3.96 362.63 3.85C362.64 3.77 362.68 3.77 362.73 3.77L363.43 3.77C363.65 3.77 363.72 3.75 363.72 3.56C363.72 3.32 363.68 3.26 363.48 3.26C363.16 3.26 362.45 3.30 362.03 3.30C361.61 3.30 360.91 3.26 360.68 3.26C360.50 3.26 360.40 3.28 360.40 3.51ZM380.11 12.39C380.11 12.63 380.11 12.68 380.31 12.68C380.48 12.68 380.80 12.64 381.37 12.64C381.99 12.64 382.54 12.68 382.69 12.68C382.86 12.68 382.86 12.61 382.86 12.40C382.86 12.24 382.86 12.18 382.69 12.18L381.61 12.18C381.61 12.18 381.60 12.18 381.60 12.17C381.61 11.87 382.38 9.90 382.73 9.02C382.80 8.83 382.82 8.79 383.03 8.79L385.85 8.79C385.99 8.79 385.99 8.81 386.06 9.03C386.33 9.77 387.04 11.89 387.04 12.17C387.04 12.18 387.03 12.18 387.03 12.18L386.26 12.18C386.04 12.18 386.02 12.19 386.02 12.39C386.02 12.63 386.04 12.68 386.20 12.68C386.53 12.68 387.39 12.64 387.81 12.64C388.23 12.64 388.91 12.68 389.12 12.68C389.26 12.68 389.27 12.61 389.27 12.40C389.27 12.24 389.26 12.18 389.12 12.18L388.63 12.18C388.53 12.18 387.51 9.34 386.95 7.78L385.27 3.07C385.25 3.00 385.18 2.94 385.10 2.94C384.97 2.94 384.87 3.16 384.79 3.35C384.64 3.71 384.40 3.84 384.29 4.13L382.80 7.57C382.62 8.01 380.91 12.18 380.79 12.18L380.37 12.18C380.14 12.18 380.11 12.19 380.11 12.39ZM383.01 8.33C383.01 8.30 383.04 8.23 383.08 8.13L384.45 4.77C384.50 4.66 384.52 4.61 384.55 4.61C384.57 4.61 384.58 4.63 384.62 4.77L385.78 8.18C385.81 8.25 385.83 8.29 385.83 8.32C385.83 8.36 385.80 8.37 385.70 8.37L383.19 8.37C383.01 8.37 383.01 8.34 383.01 8.33ZM397.03 3.51C397.03 3.72 397.10 3.79 397.29 3.79L398.10 3.77C398.20 3.77 398.24 6.61 398.24 8.55L398.24 10.42C398.24 11.30 398.23 12.18 398.19 12.18L397.59 12.18C397.36 12.18 397.29 12.19 397.29 12.39C397.29 12.63 397.33 12.68 397.53 12.68C397.66 12.68 398.48 12.64 398.90 12.64C399.32 12.64 400.09 12.68 400.41 12.68C400.58 12.68 400.61 12.61 400.61 12.40C400.61 12.24 400.58 12.18 400.41 12.18L399.60 12.18C399.53 12.18 399.45 9.18 399.45 8.37C399.45 8.30 399.45 8.26 399.56 8.26C399.95 8.26 400.55 8.27 400.85 8.27C403.09 8.32 403.23 10.00 403.23 11.68L403.23 12.49C403.23 12.61 403.28 12.64 403.38 12.64C403.38 12.64 404.82 12.68 405.30 12.68C405.47 12.68 405.52 12.64 405.52 12.53C405.52 12.24 405.47 12.18 405.31 12.18L404.67 12.18C404.57 12.18 404.54 12.14 404.52 11.31C404.43 8.99 403.06 8.34 402.15 8.05C402.01 8.01 402.04 8.01 402.15 7.95C402.74 7.69 404.05 6.94 404.05 5.63C404.05 3.63 402.36 3.21 400.96 3.21C400.64 3.21 399.35 3.29 398.93 3.29C398.51 3.29 397.53 3.26 397.31 3.26C397.12 3.26 397.03 3.28 397.03 3.51ZM399.45 7.80L399.45 4.40C399.45 4.05 399.48 3.68 399.52 3.68C399.73 3.65 400.01 3.65 400.23 3.65C401.53 3.65 402.78 4.47 402.78 5.82C402.78 6.99 402.23 7.57 401.58 7.88C401.53 7.90 401.49 7.90 401.42 7.90C400.95 7.88 400.23 7.88 399.63 7.87C399.46 7.87 399.45 7.85 399.45 7.80ZM413.00 12.39C413.00 12.63 413.03 12.68 413.22 12.68C413.55 12.68 414.51 12.64 414.93 12.64C415.35 12.64 419.86 12.68 420.18 12.68C420.31 12.68 420.46 12.66 420.46 12.49C420.46 12.07 420.50 11.23 420.50 10.53C420.50 10.39 420.35 10.39 420.22 10.39C420.11 10.39 419.99 10.39 419.99 10.51C419.97 11.06 419.97 11.41 419.94 11.76C419.92 12.01 419.92 12.04 419.82 12.04C419.66 12.04 417.03 12.08 415.53 12.08C415.46 12.08 415.42 10.11 415.38 8.26C415.38 8.06 415.42 8.09 415.56 8.09L417.84 8.09C418.54 8.09 418.57 8.20 418.57 8.30L418.57 9.00C418.57 9.14 418.75 9.14 418.87 9.14C418.96 9.14 419.09 9.13 419.09 9.02C419.09 8.83 419.06 8.33 419.06 7.83C419.06 7.32 419.09 6.83 419.09 6.71C419.09 6.59 418.95 6.58 418.85 6.58C418.74 6.58 418.57 6.59 418.57 6.72L418.57 7.45C418.57 7.62 418.12 7.63 417.84 7.63L415.51 7.63C415.39 7.63 415.38 7.63 415.38 7.45C415.37 6.75 415.35 6.06 415.35 5.46C415.35 5.12 415.35 3.71 415.44 3.71C416.67 3.71 419.17 3.75 419.17 3.81C419.17 3.99 419.13 4.83 419.13 4.89C419.13 5.04 419.20 5.10 419.38 5.10C419.58 5.10 419.65 5.08 419.65 4.94C419.65 3.85 419.71 3.36 419.71 3.09C419.71 2.91 419.62 2.90 419.43 2.90C419.23 2.90 419.23 2.95 419.20 3.11C419.19 3.25 419.26 3.25 418.35 3.25C417.73 3.25 415.59 3.29 414.82 3.29C414.33 3.29 413.39 3.25 413.29 3.25C413.17 3.25 413.11 3.30 413.11 3.49C413.11 3.72 413.18 3.74 413.35 3.74L414.01 3.74C414.06 3.74 414.13 4.79 414.13 5.71C414.13 5.80 414.19 8.27 414.19 9.83L414.19 11.17C414.19 11.84 414.16 12.18 414.13 12.18L413.28 12.18C413.06 12.18 413.00 12.21 413.00 12.39Z"></path></g></svg>